<svg width="1068.0" height="2617.929291125633" viewBox="0 0 1068.0 2617.929291125633" class="keymap" xmlns="http://www.w3.org/2000/svg" xmlns:xlink="http://www.w3.org/1999/xlink">
<defs>/* start glyphs */
<svg id="mdi:arrow-up">
<svg xmlns="http://www.w3.org/2000/svg" id="mdi-arrow-up" viewBox="0 0 24 24"><path d="M13,20H11V8L5.5,13.5L4.08,12.08L12,4.16L19.92,12.08L18.5,13.5L13,8V20Z" /></svg>
</svg>
<svg id="mdi:skip-next">
<svg xmlns="http://www.w3.org/2000/svg" id="mdi-skip-next" viewBox="0 0 24 24"><path d="M16,18H18V6H16M6,18L14.5,12L6,6V18Z" /></svg>
</svg>
<svg id="mdi:arrow-right">
<svg xmlns="http://www.w3.org/2000/svg" id="mdi-arrow-right" viewBox="0 0 24 24"><path d="M4,11V13H16L10.5,18.5L11.92,19.92L19.84,12L11.92,4.08L10.5,5.5L16,11H4Z" /></svg>
</svg>
<svg id="mdi:arrow-down">
<svg xmlns="http://www.w3.org/2000/svg" id="mdi-arrow-down" viewBox="0 0 24 24"><path d="M11,4H13V16L18.5,10.5L19.92,11.92L12,19.84L4.08,11.92L5.5,10.5L11,16V4Z" /></svg>
</svg>
<svg id="mdi:volume-medium">
<svg xmlns="http://www.w3.org/2000/svg" id="mdi-volume-medium" viewBox="0 0 24 24"><path d="M5,9V15H9L14,20V4L9,9M18.5,12C18.5,10.23 17.5,8.71 16,7.97V16C17.5,15.29 18.5,13.76 18.5,12Z" /></svg>
</svg>
<svg id="mdi:apple-keyboard-option">
<svg xmlns="http://www.w3.org/2000/svg" id="mdi-apple-keyboard-option" viewBox="0 0 24 24"><path d="M3,4H9.11L16.15,18H21V20H14.88L7.84,6H3V4M14,4H21V6H14V4Z" /></svg>
</svg>
<svg id="mdi:numeric-1">
<svg xmlns="http://www.w3.org/2000/svg" id="mdi-numeric-1" viewBox="0 0 24 24"><path d="M10,7V9H12V17H14V7H10Z" /></svg>
</svg>
<svg id="mdi:magnify">
<svg xmlns="http://www.w3.org/2000/svg" id="mdi-magnify" viewBox="0 0 24 24"><path d="M9.5,3A6.5,6.5 0 0,1 16,9.5C16,11.11 15.41,12.59 14.44,13.73L14.71,14H15.5L20.5,19L19,20.5L14,15.5V14.71L13.73,14.44C12.59,15.41 11.11,16 9.5,16A6.5,6.5 0 0,1 3,9.5A6.5,6.5 0 0,1 9.5,3M9.5,5C7,5 5,7 5,9.5C5,12 7,14 9.5,14C12,14 14,12 14,9.5C14,7 12,5 9.5,5Z" /></svg>
</svg>
<svg id="mdi:apple-keyboard-command">
<svg xmlns="http://www.w3.org/2000/svg" id="mdi-apple-keyboard-command" viewBox="0 0 24 24"><path d="M6,2A4,4 0 0,1 10,6V8H14V6A4,4 0 0,1 18,2A4,4 0 0,1 22,6A4,4 0 0,1 18,10H16V14H18A4,4 0 0,1 22,18A4,4 0 0,1 18,22A4,4 0 0,1 14,18V16H10V18A4,4 0 0,1 6,22A4,4 0 0,1 2,18A4,4 0 0,1 6,14H8V10H6A4,4 0 0,1 2,6A4,4 0 0,1 6,2M16,18A2,2 0 0,0 18,20A2,2 0 0,0 20,18A2,2 0 0,0 18,16H16V18M14,10H10V14H14V10M6,16A2,2 0 0,0 4,18A2,2 0 0,0 6,20A2,2 0 0,0 8,18V16H6M8,6A2,2 0 0,0 6,4A2,2 0 0,0 4,6A2,2 0 0,0 6,8H8V6M18,8A2,2 0 0,0 20,6A2,2 0 0,0 18,4A2,2 0 0,0 16,6V8H18Z" /></svg>
</svg>
<svg id="mdi:monitor-screenshot">
<svg xmlns="http://www.w3.org/2000/svg" id="mdi-monitor-screenshot" viewBox="0 0 24 24"><path d="M9,6H5V10H7V8H9M19,10H17V12H15V14H19M21,16H3V4H21M21,2H3C1.89,2 1,2.89 1,4V16A2,2 0 0,0 3,18H10V20H8V22H16V20H14V18H21A2,2 0 0,0 23,16V4C23,2.89 22.1,2 21,2" /></svg>
</svg>
<svg id="mdi:numeric-3">
<svg xmlns="http://www.w3.org/2000/svg" id="mdi-numeric-3" viewBox="0 0 24 24"><path d="M15,15V13.5A1.5,1.5 0 0,0 13.5,12A1.5,1.5 0 0,0 15,10.5V9C15,7.89 14.1,7 13,7H9V9H13V11H11V13H13V15H9V17H13A2,2 0 0,0 15,15" /></svg>
</svg>
<svg id="mdi:numeric-0">
<svg xmlns="http://www.w3.org/2000/svg" id="mdi-numeric-0" viewBox="0 0 24 24"><path d="M11,7A2,2 0 0,0 9,9V15A2,2 0 0,0 11,17H13A2,2 0 0,0 15,15V9A2,2 0 0,0 13,7H11M11,9H13V15H11V9Z" /></svg>
</svg>
<svg id="mdi:play-pause">
<svg xmlns="http://www.w3.org/2000/svg" id="mdi-play-pause" viewBox="0 0 24 24"><path d="M3,5V19L11,12M13,19H16V5H13M18,5V19H21V5" /></svg>
</svg>
<svg id="mdi:bluetooth">
<svg xmlns="http://www.w3.org/2000/svg" id="mdi-bluetooth" viewBox="0 0 24 24"><path d="M14.88,16.29L13,18.17V14.41M13,5.83L14.88,7.71L13,9.58M17.71,7.71L12,2H11V9.58L6.41,5L5,6.41L10.59,12L5,17.58L6.41,19L11,14.41V22H12L17.71,16.29L13.41,12L17.71,7.71Z" /></svg>
</svg>
<svg id="mdi:backspace-reverse-outline">
<svg xmlns="http://www.w3.org/2000/svg" id="mdi-backspace-reverse-outline" viewBox="0 0 24 24"><path d="M5,15.59L6.41,17L10,13.41L13.59,17L15,15.59L11.41,12L15,8.41L13.59,7L10,10.59L6.41,7L5,8.41L8.59,12L5,15.59M2,3A2,2 0 0,0 0,5V19A2,2 0 0,0 2,21H17C17.69,21 18.23,20.64 18.59,20.11L24,12L18.59,3.88C18.23,3.35 17.69,3 17,3H2M2,5H17L21.72,12L17,19H2V5Z" /></svg>
</svg>
<svg id="mdi:mouse">
<svg xmlns="http://www.w3.org/2000/svg" id="mdi-mouse" viewBox="0 0 24 24"><path d="M11,1.07C7.05,1.56 4,4.92 4,9H11M4,15A8,8 0 0,0 12,23A8,8 0 0,0 20,15V11H4M13,1.07V9H20C20,4.92 16.94,1.56 13,1.07Z" /></svg>
</svg>
<svg id="mdi:usb">
<svg xmlns="http://www.w3.org/2000/svg" id="mdi-usb" viewBox="0 0 24 24"><path d="M15,7V11H16V13H13V5H15L12,1L9,5H11V13H8V10.93C8.7,10.56 9.2,9.85 9.2,9C9.2,7.78 8.21,6.8 7,6.8C5.78,6.8 4.8,7.78 4.8,9C4.8,9.85 5.3,10.56 6,10.93V13A2,2 0 0,0 8,15H11V18.05C10.29,18.41 9.8,19.15 9.8,20A2.2,2.2 0 0,0 12,22.2A2.2,2.2 0 0,0 14.2,20C14.2,19.15 13.71,18.41 13,18.05V15H16A2,2 0 0,0 18,13V11H19V7H15Z" /></svg>
</svg>
<svg id="mdi:apple-keyboard-control">
<svg xmlns="http://www.w3.org/2000/svg" id="mdi-apple-keyboard-control" viewBox="0 0 24 24"><path d="M19.78,11.78L18.36,13.19L12,6.83L5.64,13.19L4.22,11.78L12,4L19.78,11.78Z" /></svg>
</svg>
<svg id="mdi:auto-fix">
<svg xmlns="http://www.w3.org/2000/svg" id="mdi-auto-fix" viewBox="0 0 24 24"><path d="M7.5,5.6L5,7L6.4,4.5L5,2L7.5,3.4L10,2L8.6,4.5L10,7L7.5,5.6M19.5,15.4L22,14L20.6,16.5L22,19L19.5,17.6L17,19L18.4,16.5L17,14L19.5,15.4M22,2L20.6,4.5L22,7L19.5,5.6L17,7L18.4,4.5L17,2L19.5,3.4L22,2M13.34,12.78L15.78,10.34L13.66,8.22L11.22,10.66L13.34,12.78M14.37,7.29L16.71,9.63C17.1,10 17.1,10.65 16.71,11.04L5.04,22.71C4.65,23.1 4,23.1 3.63,22.71L1.29,20.37C0.9,20 0.9,19.35 1.29,18.96L12.96,7.29C13.35,6.9 14,6.9 14.37,7.29Z" /></svg>
</svg>
<svg id="mdi:arrow-left">
<svg xmlns="http://www.w3.org/2000/svg" id="mdi-arrow-left" viewBox="0 0 24 24"><path d="M20,11V13H8L13.5,18.5L12.08,19.92L4.16,12L12.08,4.08L13.5,5.5L8,11H20Z" /></svg>
</svg>
<svg id="mdi:keyboard-tab">
<svg xmlns="http://www.w3.org/2000/svg" id="mdi-keyboard-tab" viewBox="0 0 24 24"><path d="M20,18H22V6H20M11.59,7.41L15.17,11H1V13H15.17L11.59,16.58L13,18L19,12L13,6L11.59,7.41Z" /></svg>
</svg>
<svg id="mdi:tire">
<svg xmlns="http://www.w3.org/2000/svg" id="mdi-tire" viewBox="0 0 24 24"><path d="M19.66 9.64L19.3 8.7L21.16 8C20.24 5.88 18.6 4.18 16.54 3.14L15.74 4.92L14.82 4.5L15.62 2.7C14.5 2.26 13.28 2 12 2C10.94 2 9.92 2.22 8.96 2.5L9.64 4.34L8.7 4.7L8 2.84C5.88 3.76 4.18 5.4 3.14 7.46L4.92 8.26L4.5 9.18L2.7 8.38C2.26 9.5 2 10.72 2 12C2 13.06 2.22 14.08 2.5 15.04L4.34 14.36L4.7 15.3L2.84 16C3.76 18.12 5.4 19.82 7.46 20.86L8.26 19.08L9.18 19.5L8.38 21.3C9.5 21.74 10.72 22 12 22C13.06 22 14.08 21.78 15.04 21.5L14.36 19.66L15.3 19.3L16 21.16C18.12 20.24 19.82 18.6 20.86 16.54L19.08 15.74L19.5 14.82L21.3 15.62C21.74 14.5 22 13.28 22 12C22 10.94 21.78 9.92 21.5 8.96L19.66 9.64M14.3 17.54C11.24 18.8 7.72 17.36 6.46 14.3S6.64 7.72 9.7 6.46 16.28 6.64 17.54 9.7C18.82 12.76 17.36 16.28 14.3 17.54Z" /></svg>
</svg>
<svg id="mdi:microphone">
<svg xmlns="http://www.w3.org/2000/svg" id="mdi-microphone" viewBox="0 0 24 24"><path d="M12,2A3,3 0 0,1 15,5V11A3,3 0 0,1 12,14A3,3 0 0,1 9,11V5A3,3 0 0,1 12,2M19,11C19,14.53 16.39,17.44 13,17.93V21H11V17.93C7.61,17.44 5,14.53 5,11H7A5,5 0 0,0 12,16A5,5 0 0,0 17,11H19Z" /></svg>
</svg>
<svg id="mdi:skip-previous">
<svg xmlns="http://www.w3.org/2000/svg" id="mdi-skip-previous" viewBox="0 0 24 24"><path d="M6,18V6H8V18H6M9.5,12L18,6V18L9.5,12Z" /></svg>
</svg>
<svg id="tabler:brightness-down">
<svg xmlns="http://www.w3.org/2000/svg" class="icon icon-tabler icon-tabler-brightness-down" viewBox="0 0 24 24" stroke-width="2" stroke="currentColor" fill="none" stroke-linecap="round" stroke-linejoin="round">
  <path stroke="none" d="M0 0h24v24H0z" fill="none"/>
  <path d="M12 12m-3 0a3 3 0 1 0 6 0a3 3 0 1 0 -6 0" />
  <path d="M12 5l0 .01" />
  <path d="M17 7l0 .01" />
  <path d="M19 12l0 .01" />
  <path d="M17 17l0 .01" />
  <path d="M12 19l0 .01" />
  <path d="M7 17l0 .01" />
  <path d="M5 12l0 .01" />
  <path d="M7 7l0 .01" />
</svg>



</svg>
<svg id="mdi:numeric-2">
<svg xmlns="http://www.w3.org/2000/svg" id="mdi-numeric-2" viewBox="0 0 24 24"><path d="M9,7V9H13V11H11A2,2 0 0,0 9,13V17H11L15,17V15H11V13H13A2,2 0 0,0 15,11V9A2,2 0 0,0 13,7H9Z" /></svg>
</svg>
<svg id="mdi:keyboard-space">
<svg xmlns="http://www.w3.org/2000/svg" id="mdi-keyboard-space" viewBox="0 0 24 24"><path d="M3 15H5V19H19V15H21V19C21 20.1 20.1 21 19 21H5C3.9 21 3 20.1 3 19V15Z" /></svg>
</svg>
<svg id="mdi:lock-outline">
<svg xmlns="http://www.w3.org/2000/svg" id="mdi-lock-outline" viewBox="0 0 24 24"><path d="M12,17C10.89,17 10,16.1 10,15C10,13.89 10.89,13 12,13A2,2 0 0,1 14,15A2,2 0 0,1 12,17M18,20V10H6V20H18M18,8A2,2 0 0,1 20,10V20A2,2 0 0,1 18,22H6C4.89,22 4,21.1 4,20V10C4,8.89 4.89,8 6,8H7V6A5,5 0 0,1 12,1A5,5 0 0,1 17,6V8H18M12,3A3,3 0 0,0 9,6V8H15V6A3,3 0 0,0 12,3Z" /></svg>
</svg>
<svg id="mdi:backspace-outline">
<svg xmlns="http://www.w3.org/2000/svg" id="mdi-backspace-outline" viewBox="0 0 24 24"><path d="M19,15.59L17.59,17L14,13.41L10.41,17L9,15.59L12.59,12L9,8.41L10.41,7L14,10.59L17.59,7L19,8.41L15.41,12L19,15.59M22,3A2,2 0 0,1 24,5V19A2,2 0 0,1 22,21H7C6.31,21 5.77,20.64 5.41,20.11L0,12L5.41,3.88C5.77,3.35 6.31,3 7,3H22M22,5H7L2.28,12L7,19H22V5Z" /></svg>
</svg>
<svg id="mdi:apple-keyboard-shift">
<svg xmlns="http://www.w3.org/2000/svg" id="mdi-apple-keyboard-shift" viewBox="0 0 24 24"><path d="M15,18V12H17.17L12,6.83L6.83,12H9V18H15M12,4L22,14H17V20H7V14H2L12,4Z" /></svg>
</svg>
<svg id="mdi:web">
<svg xmlns="http://www.w3.org/2000/svg" id="mdi-web" viewBox="0 0 24 24"><path d="M16.36,14C16.44,13.34 16.5,12.68 16.5,12C16.5,11.32 16.44,10.66 16.36,10H19.74C19.9,10.64 20,11.31 20,12C20,12.69 19.9,13.36 19.74,14M14.59,19.56C15.19,18.45 15.65,17.25 15.97,16H18.92C17.96,17.65 16.43,18.93 14.59,19.56M14.34,14H9.66C9.56,13.34 9.5,12.68 9.5,12C9.5,11.32 9.56,10.65 9.66,10H14.34C14.43,10.65 14.5,11.32 14.5,12C14.5,12.68 14.43,13.34 14.34,14M12,19.96C11.17,18.76 10.5,17.43 10.09,16H13.91C13.5,17.43 12.83,18.76 12,19.96M8,8H5.08C6.03,6.34 7.57,5.06 9.4,4.44C8.8,5.55 8.35,6.75 8,8M5.08,16H8C8.35,17.25 8.8,18.45 9.4,19.56C7.57,18.93 6.03,17.65 5.08,16M4.26,14C4.1,13.36 4,12.69 4,12C4,11.31 4.1,10.64 4.26,10H7.64C7.56,10.66 7.5,11.32 7.5,12C7.5,12.68 7.56,13.34 7.64,14M12,4.03C12.83,5.23 13.5,6.57 13.91,8H10.09C10.5,6.57 11.17,5.23 12,4.03M18.92,8H15.97C15.65,6.75 15.19,5.55 14.59,4.44C16.43,5.07 17.96,6.34 18.92,8M12,2C6.47,2 2,6.5 2,12A10,10 0 0,0 12,22A10,10 0 0,0 22,12A10,10 0 0,0 12,2Z" /></svg>
</svg>
<svg id="tabler:brightness-up">
<svg xmlns="http://www.w3.org/2000/svg" class="icon icon-tabler icon-tabler-brightness-up" viewBox="0 0 24 24" stroke-width="2" stroke="currentColor" fill="none" stroke-linecap="round" stroke-linejoin="round">
  <path stroke="none" d="M0 0h24v24H0z" fill="none"/>
  <path d="M12 12m-3 0a3 3 0 1 0 6 0a3 3 0 1 0 -6 0" />
  <path d="M12 5l0 -2" />
  <path d="M17 7l1.4 -1.4" />
  <path d="M19 12l2 0" />
  <path d="M17 17l1.4 1.4" />
  <path d="M12 19l0 2" />
  <path d="M7 17l-1.4 1.4" />
  <path d="M6 12l-2 0" />
  <path d="M7 7l-1.4 -1.4" />
</svg>



</svg>
<svg id="mdi:emoticon-happy-outline">
<svg xmlns="http://www.w3.org/2000/svg" id="mdi-emoticon-happy-outline" viewBox="0 0 24 24"><path d="M20,12A8,8 0 0,0 12,4A8,8 0 0,0 4,12A8,8 0 0,0 12,20A8,8 0 0,0 20,12M22,12A10,10 0 0,1 12,22A10,10 0 0,1 2,12A10,10 0 0,1 12,2A10,10 0 0,1 22,12M10,9.5C10,10.3 9.3,11 8.5,11C7.7,11 7,10.3 7,9.5C7,8.7 7.7,8 8.5,8C9.3,8 10,8.7 10,9.5M17,9.5C17,10.3 16.3,11 15.5,11C14.7,11 14,10.3 14,9.5C14,8.7 14.7,8 15.5,8C16.3,8 17,8.7 17,9.5M12,17.23C10.25,17.23 8.71,16.5 7.81,15.42L9.23,14C9.68,14.72 10.75,15.23 12,15.23C13.25,15.23 14.32,14.72 14.77,14L16.19,15.42C15.29,16.5 13.75,17.23 12,17.23Z" /></svg>
</svg>
<svg id="mdi:volume-high">
<svg xmlns="http://www.w3.org/2000/svg" id="mdi-volume-high" viewBox="0 0 24 24"><path d="M14,3.23V5.29C16.89,6.15 19,8.83 19,12C19,15.17 16.89,17.84 14,18.7V20.77C18,19.86 21,16.28 21,12C21,7.72 18,4.14 14,3.23M16.5,12C16.5,10.23 15.5,8.71 14,7.97V16C15.5,15.29 16.5,13.76 16.5,12M3,9V15H7L12,20V4L7,9H3Z" /></svg>
</svg>
<svg id="mdi:volume-low">
<svg xmlns="http://www.w3.org/2000/svg" id="mdi-volume-low" viewBox="0 0 24 24"><path d="M7,9V15H11L16,20V4L11,9H7Z" /></svg>
</svg>
<svg id="mdi:content-copy">
<svg xmlns="http://www.w3.org/2000/svg" id="mdi-content-copy" viewBox="0 0 24 24"><path d="M19,21H8V7H19M19,5H8A2,2 0 0,0 6,7V21A2,2 0 0,0 8,23H19A2,2 0 0,0 21,21V7A2,2 0 0,0 19,5M16,1H4A2,2 0 0,0 2,3V17H4V3H16V1Z" /></svg>
</svg>
</defs>/* end glyphs */
<style>/* inherit to force styles through use tags*/
svg path {
    fill: inherit;
}
/* font and background color specifications */
svg.keymap {
    font-family: SFMono-Regular,Consolas,Liberation Mono,Menlo,monospace;
    font-size: 14px;
    font-kerning: normal;
    text-rendering: optimizeLegibility;
    fill: #24292e;
}

/* default key styling */
rect.key {
    fill: #f6f8fa;
    stroke: #c9cccf;
    stroke-width: 1;
}

/* color accent for combo boxes */
rect.combo {
    fill: #cdf;
}

/* color accent for held keys */
rect.held, rect.combo.held {
    fill: #fdd;
}

/* color accent for ghost (optional) keys */
rect.ghost, rect.combo.ghost {
    stroke-dasharray: 4, 4;
    stroke-width: 2;
}

text {
    text-anchor: middle;
    dominant-baseline: middle;
}

/* styling for layer labels */
text.label {
    font-weight: bold;
    text-anchor: start;
    stroke: white;
    stroke-width: 2;
    paint-order: stroke;
}

/* styling for combo tap, and key hold/shifted label text */
text.combo, text.hold, text.shifted {
    font-size: 11px;
}

text.hold {
    text-anchor: middle;
    dominant-baseline: auto;
}

text.shifted {
    text-anchor: middle;
    dominant-baseline: hanging;
}

/* styling for hold/shifted label text in combo box */
text.combo.hold, text.combo.shifted {
    font-size: 8px;
}

/* lighter symbol for transparent keys */
text.trans {
    fill: #7b7e81;
}

/* styling for combo dendrons */
path.combo {
    stroke-width: 1;
    stroke: gray;
    fill: none;
}

/* Start Tabler Icons Cleanup */
/* cannot use height/width with glyphs */
.icon-tabler > path {
    fill: inherit;
    stroke: inherit;
}
/* hide tabler's default box */
.icon-tabler > path[stroke="none"][fill="none"] {
    visibility: collapse;
}
/* End Tabler Icons Cleanup */
</style>
<g class="layer-Base">
<text x="30.0" y="28.0" class="label">Base:</text>
<rect rx="6.0" ry="6.0" x="32.0" y="86.0" width="52.0" height="52.0" class="key"/>
<use href="#tabler:brightness-down" xlink:href="#tabler:brightness-down" x="51.0" y="105.0" height="14" width="14.0" class="tap glyph tabler:brightness-down"/>
<rect rx="6.0" ry="6.0" x="88.0" y="86.0" width="52.0" height="52.0" class="key"/>
<use href="#tabler:brightness-up" xlink:href="#tabler:brightness-up" x="107.0" y="105.0" height="14" width="14.0" class="tap glyph tabler:brightness-up"/>
<rect rx="6.0" ry="6.0" x="144.0" y="58.0" width="52.0" height="52.0" class="key"/>
<use href="#mdi:skip-previous" xlink:href="#mdi:skip-previous" x="163.0" y="77.0" height="14" width="14.0" class="tap glyph mdi:skip-previous"/>
<rect rx="6.0" ry="6.0" x="200.0" y="58.0" width="52.0" height="52.0" class="key"/>
<use href="#mdi:play-pause" xlink:href="#mdi:play-pause" x="219.0" y="77.0" height="14" width="14.0" class="tap glyph mdi:play-pause"/>
<rect rx="6.0" ry="6.0" x="256.0" y="58.0" width="52.0" height="52.0" class="key"/>
<use href="#mdi:skip-next" xlink:href="#mdi:skip-next" x="275.0" y="77.0" height="14" width="14.0" class="tap glyph mdi:skip-next"/>
<rect rx="6.0" ry="6.0" x="760.0" y="58.0" width="52.0" height="52.0" class="key"/>
<use href="#mdi:volume-low" xlink:href="#mdi:volume-low" x="779.0" y="77.0" height="14" width="14.0" class="tap glyph mdi:volume-low"/>
<rect rx="6.0" ry="6.0" x="816.0" y="58.0" width="52.0" height="52.0" class="key"/>
<use href="#mdi:volume-medium" xlink:href="#mdi:volume-medium" x="835.0" y="77.0" height="14" width="14.0" class="tap glyph mdi:volume-medium"/>
<rect rx="6.0" ry="6.0" x="872.0" y="58.0" width="52.0" height="52.0" class="key"/>
<use href="#mdi:volume-high" xlink:href="#mdi:volume-high" x="891.0" y="77.0" height="14" width="14.0" class="tap glyph mdi:volume-high"/>
<rect rx="6.0" ry="6.0" x="928.0" y="86.0" width="52.0" height="52.0" class="key"/>
<text x="954.0" y="112.0" class="tap">F9</text>
<rect rx="6.0" ry="6.0" x="984.0" y="86.0" width="52.0" height="52.0" class="key"/>
<use href="#mdi:monitor-screenshot" xlink:href="#mdi:monitor-screenshot" x="1003.0" y="105.0" height="14" width="14.0" class="tap glyph mdi:monitor-screenshot"/>
<rect rx="6.0" ry="6.0" x="32.0" y="142.0" width="52.0" height="52.0" class="key"/>
<text x="58.0" y="168.0" class="tap">`</text>
<rect rx="6.0" ry="6.0" x="88.0" y="142.0" width="52.0" height="52.0" class="key"/>
<text x="114.0" y="168.0" class="tap">1</text>
<rect rx="6.0" ry="6.0" x="144.0" y="114.0" width="52.0" height="52.0" class="key"/>
<text x="170.0" y="140.0" class="tap">2</text>
<rect rx="6.0" ry="6.0" x="200.0" y="114.0" width="52.0" height="52.0" class="key"/>
<text x="226.0" y="140.0" class="tap">3</text>
<rect rx="6.0" ry="6.0" x="256.0" y="114.0" width="52.0" height="52.0" class="key"/>
<text x="282.0" y="140.0" class="tap">4</text>
<rect rx="6.0" ry="6.0" x="312.0" y="114.0" width="52.0" height="52.0" class="key"/>
<text x="338.0" y="140.0" class="tap">5</text>
<rect rx="6.0" ry="6.0" x="704.0" y="114.0" width="52.0" height="52.0" class="key"/>
<text x="730.0" y="140.0" class="tap">6</text>
<rect rx="6.0" ry="6.0" x="760.0" y="114.0" width="52.0" height="52.0" class="key"/>
<text x="786.0" y="140.0" class="tap">7</text>
<rect rx="6.0" ry="6.0" x="816.0" y="114.0" width="52.0" height="52.0" class="key"/>
<text x="842.0" y="140.0" class="tap">8</text>
<rect rx="6.0" ry="6.0" x="872.0" y="114.0" width="52.0" height="52.0" class="key"/>
<text x="898.0" y="140.0" class="tap">9</text>
<rect rx="6.0" ry="6.0" x="928.0" y="142.0" width="52.0" height="52.0" class="key"/>
<text x="954.0" y="168.0" class="tap">0</text>
<rect rx="6.0" ry="6.0" x="984.0" y="142.0" width="52.0" height="52.0" class="key"/>
<text x="1010.0" y="168.0" class="tap">-</text>
<rect rx="6.0" ry="6.0" x="32.0" y="198.0" width="52.0" height="52.0" class="key"/>
<use href="#mdi:keyboard-tab" xlink:href="#mdi:keyboard-tab" x="51.0" y="217.0" height="14" width="14.0" class="tap glyph mdi:keyboard-tab"/>
<rect rx="6.0" ry="6.0" x="88.0" y="198.0" width="52.0" height="52.0" class="key"/>
<text x="114.0" y="224.0" class="tap">Q</text>
<rect rx="6.0" ry="6.0" x="144.0" y="170.0" width="52.0" height="52.0" class="key"/>
<text x="170.0" y="196.0" class="tap">W</text>
<rect rx="6.0" ry="6.0" x="200.0" y="170.0" width="52.0" height="52.0" class="key"/>
<text x="226.0" y="196.0" class="tap">E</text>
<rect rx="6.0" ry="6.0" x="256.0" y="170.0" width="52.0" height="52.0" class="key"/>
<text x="282.0" y="196.0" class="tap">R</text>
<rect rx="6.0" ry="6.0" x="312.0" y="170.0" width="52.0" height="52.0" class="key"/>
<text x="338.0" y="196.0" class="tap">T</text>
<rect rx="6.0" ry="6.0" x="704.0" y="170.0" width="52.0" height="52.0" class="key"/>
<text x="730.0" y="196.0" class="tap">Y</text>
<rect rx="6.0" ry="6.0" x="760.0" y="170.0" width="52.0" height="52.0" class="key"/>
<text x="786.0" y="196.0" class="tap">U</text>
<rect rx="6.0" ry="6.0" x="816.0" y="170.0" width="52.0" height="52.0" class="key"/>
<text x="842.0" y="196.0" class="tap">I</text>
<rect rx="6.0" ry="6.0" x="872.0" y="170.0" width="52.0" height="52.0" class="key"/>
<text x="898.0" y="196.0" class="tap">O</text>
<rect rx="6.0" ry="6.0" x="928.0" y="198.0" width="52.0" height="52.0" class="key"/>
<text x="954.0" y="224.0" class="tap">P</text>
<rect rx="6.0" ry="6.0" x="984.0" y="198.0" width="52.0" height="52.0" class="key"/>
<text x="1010.0" y="224.0" class="tap">\</text>
<rect rx="6.0" ry="6.0" x="32.0" y="254.0" width="52.0" height="52.0" class="key"/>
<text x="58.0" y="280.0" class="tap">ESC</text>
<use href="#mdi:apple-keyboard-control" xlink:href="#mdi:apple-keyboard-control" x="52.0" y="292.0" height="12" width="12.0" class="hold glyph mdi:apple-keyboard-control"/>
<rect rx="6.0" ry="6.0" x="88.0" y="254.0" width="52.0" height="52.0" class="key"/>
<text x="114.0" y="280.0" class="tap">A</text>
<use href="#mdi:apple-keyboard-control" xlink:href="#mdi:apple-keyboard-control" x="108.0" y="292.0" height="12" width="12.0" class="hold glyph mdi:apple-keyboard-control"/>
<rect rx="6.0" ry="6.0" x="144.0" y="226.0" width="52.0" height="52.0" class="key"/>
<text x="170.0" y="252.0" class="tap">S</text>
<use href="#mdi:apple-keyboard-option" xlink:href="#mdi:apple-keyboard-option" x="164.0" y="264.0" height="12" width="12.0" class="hold glyph mdi:apple-keyboard-option"/>
<rect rx="6.0" ry="6.0" x="200.0" y="226.0" width="52.0" height="52.0" class="key"/>
<text x="226.0" y="252.0" class="tap">D</text>
<use href="#mdi:apple-keyboard-command" xlink:href="#mdi:apple-keyboard-command" x="220.0" y="264.0" height="12" width="12.0" class="hold glyph mdi:apple-keyboard-command"/>
<rect rx="6.0" ry="6.0" x="256.0" y="226.0" width="52.0" height="52.0" class="key"/>
<text x="282.0" y="252.0" class="tap">F</text>
<use href="#mdi:apple-keyboard-shift" xlink:href="#mdi:apple-keyboard-shift" x="276.0" y="264.0" height="12" width="12.0" class="hold glyph mdi:apple-keyboard-shift"/>
<rect rx="6.0" ry="6.0" x="312.0" y="226.0" width="52.0" height="52.0" class="key"/>
<text x="338.0" y="252.0" class="tap">G</text>
<rect rx="6.0" ry="6.0" x="704.0" y="226.0" width="52.0" height="52.0" class="key"/>
<text x="730.0" y="252.0" class="tap">H</text>
<rect rx="6.0" ry="6.0" x="760.0" y="226.0" width="52.0" height="52.0" class="key"/>
<text x="786.0" y="252.0" class="tap">J</text>
<use href="#mdi:apple-keyboard-shift" xlink:href="#mdi:apple-keyboard-shift" x="780.0" y="264.0" height="12" width="12.0" class="hold glyph mdi:apple-keyboard-shift"/>
<rect rx="6.0" ry="6.0" x="816.0" y="226.0" width="52.0" height="52.0" class="key"/>
<text x="842.0" y="252.0" class="tap">K</text>
<use href="#mdi:apple-keyboard-command" xlink:href="#mdi:apple-keyboard-command" x="836.0" y="264.0" height="12" width="12.0" class="hold glyph mdi:apple-keyboard-command"/>
<rect rx="6.0" ry="6.0" x="872.0" y="226.0" width="52.0" height="52.0" class="key"/>
<text x="898.0" y="252.0" class="tap">L</text>
<use href="#mdi:apple-keyboard-option" xlink:href="#mdi:apple-keyboard-option" x="892.0" y="264.0" height="12" width="12.0" class="hold glyph mdi:apple-keyboard-option"/>
<rect rx="6.0" ry="6.0" x="928.0" y="254.0" width="52.0" height="52.0" class="key"/>
<text x="954.0" y="280.0" class="tap">;</text>
<use href="#mdi:apple-keyboard-control" xlink:href="#mdi:apple-keyboard-control" x="948.0" y="292.0" height="12" width="12.0" class="hold glyph mdi:apple-keyboard-control"/>
<rect rx="6.0" ry="6.0" x="984.0" y="254.0" width="52.0" height="52.0" class="key"/>
<text x="1010.0" y="280.0" class="tap">&#x27;</text>
<rect rx="6.0" ry="6.0" x="32.0" y="310.0" width="52.0" height="52.0" class="key"/>
<text x="58.0" y="336.0" class="tap">`</text>
<rect rx="6.0" ry="6.0" x="88.0" y="310.0" width="52.0" height="52.0" class="key"/>
<text x="114.0" y="336.0" class="tap">Z</text>
<rect rx="6.0" ry="6.0" x="144.0" y="282.0" width="52.0" height="52.0" class="key"/>
<text x="170.0" y="308.0" class="tap">X</text>
<use href="#mdi:apple-keyboard-option" xlink:href="#mdi:apple-keyboard-option" x="164.0" y="320.0" height="12" width="12.0" class="hold glyph mdi:apple-keyboard-option"/>
<rect rx="6.0" ry="6.0" x="200.0" y="282.0" width="52.0" height="52.0" class="key"/>
<text x="226.0" y="308.0" class="tap">C</text>
<use href="#mdi:apple-keyboard-command" xlink:href="#mdi:apple-keyboard-command" x="220.0" y="320.0" height="12" width="12.0" class="hold glyph mdi:apple-keyboard-command"/>
<rect rx="6.0" ry="6.0" x="256.0" y="282.0" width="52.0" height="52.0" class="key"/>
<text x="282.0" y="308.0" class="tap">V</text>
<rect rx="6.0" ry="6.0" x="312.0" y="282.0" width="52.0" height="52.0" class="key"/>
<text x="338.0" y="308.0" class="tap">B</text>
<g transform="rotate(20.0, 397.02951760251284, 361.85546465809404)">
<rect rx="6.0" ry="6.0" x="371.02951760251284" y="335.85546465809404" width="52.0" height="52.0" class="key"/>
<use href="#mdi:apple-keyboard-shift" xlink:href="#mdi:apple-keyboard-shift" x="390.02951760251284" y="354.85546465809404" height="14" width="14.0" class="tap glyph mdi:apple-keyboard-shift"/>
<text x="397.02951760251284" y="385.85546465809404" class="hold">sticky</text>
<text x="397.02951760251284" y="337.85546465809404" class="shifted" style="font-size: 78%">Caps Word</text>
</g>
<g transform="rotate(30.0, 448.5389172312929, 385.44871130596425)">
<rect rx="6.0" ry="6.0" x="422.5389172312929" y="359.44871130596425" width="52.0" height="52.0" class="key"/>
<use href="#mdi:web" xlink:href="#mdi:web" x="441.5389172312929" y="378.44871130596425" height="14" width="14.0" class="tap glyph mdi:web"/>
</g>
<g transform="rotate(45.0, 495.5476764533247, 421.1456561997713)">
<rect rx="6.0" ry="6.0" x="469.5476764533247" y="395.1456561997713" width="52.0" height="52.0" class="key"/>
<use href="#mdi:emoticon-happy-outline" xlink:href="#mdi:emoticon-happy-outline" x="488.5476764533247" y="414.1456561997713" height="14" width="14.0" class="tap glyph mdi:emoticon-happy-outline"/>
</g>
<g transform="rotate(-45.0, 576.4121215213199, 417.1858582251266)">
<rect rx="6.0" ry="6.0" x="550.4121215213199" y="391.1858582251266" width="52.0" height="52.0" class="key"/>
<use href="#mdi:lock-outline" xlink:href="#mdi:lock-outline" x="569.4121215213199" y="410.1858582251266" height="14" width="14.0" class="tap glyph mdi:lock-outline"/>
</g>
<g transform="rotate(-30.0, 624.3108250299001, 382.6487113059642)">
<rect rx="6.0" ry="6.0" x="598.3108250299001" y="356.6487113059642" width="52.0" height="52.0" class="key"/>
<use href="#mdi:magnify" xlink:href="#mdi:magnify" x="617.3108250299001" y="375.6487113059642" height="14" width="14.0" class="tap glyph mdi:magnify"/>
</g>
<g transform="rotate(-20.0, 676.2327610738882, 359.9401518554703)">
<rect rx="6.0" ry="6.0" x="650.2327610738882" y="333.9401518554703" width="52.0" height="52.0" class="key"/>
<text x="676.2327610738882" y="359.9401518554703" class="tap">RET</text>
</g>
<rect rx="6.0" ry="6.0" x="704.0" y="282.0" width="52.0" height="52.0" class="key"/>
<text x="730.0" y="308.0" class="tap">N</text>
<rect rx="6.0" ry="6.0" x="760.0" y="282.0" width="52.0" height="52.0" class="key"/>
<text x="786.0" y="308.0" class="tap">M</text>
<rect rx="6.0" ry="6.0" x="816.0" y="282.0" width="52.0" height="52.0" class="key"/>
<text x="842.0" y="308.0" class="tap">,</text>
<rect rx="6.0" ry="6.0" x="872.0" y="282.0" width="52.0" height="52.0" class="key"/>
<text x="898.0" y="308.0" class="tap">.</text>
<use href="#mdi:apple-keyboard-option" xlink:href="#mdi:apple-keyboard-option" x="892.0" y="320.0" height="12" width="12.0" class="hold glyph mdi:apple-keyboard-option"/>
<rect rx="6.0" ry="6.0" x="928.0" y="310.0" width="52.0" height="52.0" class="key"/>
<text x="954.0" y="336.0" class="tap">/</text>
<rect rx="6.0" ry="6.0" x="984.0" y="310.0" width="52.0" height="52.0" class="key"/>
<text x="1010.0" y="336.0" class="tap">=</text>
<rect rx="6.0" ry="6.0" x="32.0" y="366.0" width="52.0" height="52.0" class="key"/>
<use href="#mdi:auto-fix" xlink:href="#mdi:auto-fix" x="51.0" y="385.0" height="14" width="14.0" class="tap glyph mdi:auto-fix"/>
<rect rx="6.0" ry="6.0" x="88.0" y="366.0" width="52.0" height="52.0" class="key"/>
<text x="114.0" y="392.0" class="tap">HOME</text>
<rect rx="6.0" ry="6.0" x="144.0" y="338.0" width="52.0" height="52.0" class="key"/>
<text x="170.0" y="364.0" class="tap">END</text>
<rect rx="6.0" ry="6.0" x="200.0" y="338.0" width="52.0" height="52.0" class="key"/>
<use href="#mdi:arrow-left" xlink:href="#mdi:arrow-left" x="219.0" y="357.0" height="14" width="14.0" class="tap glyph mdi:arrow-left"/>
<rect rx="6.0" ry="6.0" x="256.0" y="338.0" width="52.0" height="52.0" class="key"/>
<use href="#mdi:arrow-right" xlink:href="#mdi:arrow-right" x="275.0" y="357.0" height="14" width="14.0" class="tap glyph mdi:arrow-right"/>
<g transform="rotate(15.0, 344.1183900270675, 411.53488288242806)">
<rect rx="6.0" ry="6.0" x="318.1183900270675" y="385.53488288242806" width="52.0" height="52.0" class="key"/>
<use href="#mdi:keyboard-tab" xlink:href="#mdi:keyboard-tab" x="337.1183900270675" y="404.53488288242806" height="14" width="14.0" class="tap glyph mdi:keyboard-tab"/>
</g>
<g transform="rotate(25.0, 399.5017205008228, 434.74314827521164)">
<rect rx="6.0" ry="6.0" x="373.5017205008228" y="408.74314827521164" width="52.0" height="52.0" class="key"/>
<text x="399.5017205008228" y="434.74314827521164" class="tap">ESC</text>
<text x="399.5017205008228" y="458.74314827521164" class="hold">Lower</text>
</g>
<g transform="rotate(45.0, 451.9898987322333, 472.78787847867994)">
<rect rx="6.0" ry="6.0" x="425.9898987322333" y="446.78787847867994" width="52.0" height="52.0" class="key"/>
<use href="#mdi:microphone" xlink:href="#mdi:microphone" x="444.9898987322333" y="465.78787847867994" height="14" width="14.0" class="tap glyph mdi:microphone"/>
</g>
<g transform="rotate(-45.0, 616.0101012677667, 472.78787847867994)">
<rect rx="6.0" ry="6.0" x="590.0101012677667" y="446.78787847867994" width="52.0" height="52.0" class="key"/>
<text x="616.0101012677667" y="472.78787847867994" class="tap">Mouse</text>
</g>
<g transform="rotate(-25.0, 668.4982794991772, 434.74314827521164)">
<rect rx="6.0" ry="6.0" x="642.4982794991772" y="408.74314827521164" width="52.0" height="52.0" class="key"/>
<use href="#mdi:backspace-outline" xlink:href="#mdi:backspace-outline" x="661.4982794991772" y="427.74314827521164" height="14" width="14.0" class="tap glyph mdi:backspace-outline"/>
<text x="668.4982794991772" y="458.74314827521164" class="hold">Symbol</text>
</g>
<g transform="rotate(-15.0, 723.8816099729324, 411.53488288242806)">
<rect rx="6.0" ry="6.0" x="697.8816099729324" y="385.53488288242806" width="52.0" height="52.0" class="key"/>
<use href="#mdi:keyboard-space" xlink:href="#mdi:keyboard-space" x="716.8816099729324" y="404.53488288242806" height="14" width="14.0" class="tap glyph mdi:keyboard-space"/>
</g>
<rect rx="6.0" ry="6.0" x="760.0" y="338.0" width="52.0" height="52.0" class="key"/>
<text x="786.0" y="364.0" class="tap">(</text>
<rect rx="6.0" ry="6.0" x="816.0" y="338.0" width="52.0" height="52.0" class="key"/>
<text x="842.0" y="364.0" class="tap">[</text>
<rect rx="6.0" ry="6.0" x="872.0" y="338.0" width="52.0" height="52.0" class="key"/>
<text x="898.0" y="364.0" class="tap">]</text>
<rect rx="6.0" ry="6.0" x="928.0" y="366.0" width="52.0" height="52.0" class="key"/>
<text x="954.0" y="392.0" class="tap">)</text>
<rect rx="6.0" ry="6.0" x="984.0" y="366.0" width="52.0" height="52.0" class="key"/>
<text x="1010.0" y="392.0" class="tap">
<tspan x="1010.0" dy="-0.6em">PG</tspan><tspan x="1010.0" dy="1.2em">DN</tspan></text>
<path d="M255.0,280.0 v-22.0 a6.0,6.0 0 0 0 -6.0,-6.0 h-4.333333333333332" class="combo"/>
<path d="M255.0,280.0 v22.0 a6.0,6.0 0 0 1 -6.0,6.0 h-4.333333333333332" class="combo"/>
<rect rx="6.0" ry="6.0" x="241.0" y="267.0" width="28.0" height="26.0" class="combo"/>
<use href="#mdi:content-copy" xlink:href="#mdi:content-copy" x="248.0" y="273.0" height="14" width="14.0" class="combo tap glyph mdi:content-copy"/>
</g>
<g class="layer-Lower">
<text x="30.0" y="540.3858582251266" class="label">Lower:</text>
<rect rx="6.0" ry="6.0" x="32.0" y="598.3858582251266" width="52.0" height="52.0" class="key"/>
<text x="58.0" y="624.3858582251266" class="tap">F1</text>
<rect rx="6.0" ry="6.0" x="88.0" y="598.3858582251266" width="52.0" height="52.0" class="key"/>
<text x="114.0" y="624.3858582251266" class="tap">F2</text>
<rect rx="6.0" ry="6.0" x="144.0" y="570.3858582251266" width="52.0" height="52.0" class="key"/>
<text x="170.0" y="596.3858582251266" class="tap">F3</text>
<rect rx="6.0" ry="6.0" x="200.0" y="570.3858582251266" width="52.0" height="52.0" class="key"/>
<text x="226.0" y="596.3858582251266" class="tap">F4</text>
<rect rx="6.0" ry="6.0" x="256.0" y="570.3858582251266" width="52.0" height="52.0" class="key"/>
<text x="282.0" y="596.3858582251266" class="tap">F5</text>
<rect rx="6.0" ry="6.0" x="760.0" y="570.3858582251266" width="52.0" height="52.0" class="key"/>
<text x="786.0" y="596.3858582251266" class="tap">F6</text>
<rect rx="6.0" ry="6.0" x="816.0" y="570.3858582251266" width="52.0" height="52.0" class="key"/>
<text x="842.0" y="596.3858582251266" class="tap">F7</text>
<rect rx="6.0" ry="6.0" x="872.0" y="570.3858582251266" width="52.0" height="52.0" class="key"/>
<text x="898.0" y="596.3858582251266" class="tap">F8</text>
<rect rx="6.0" ry="6.0" x="928.0" y="598.3858582251266" width="52.0" height="52.0" class="key"/>
<text x="954.0" y="624.3858582251266" class="tap">F9</text>
<rect rx="6.0" ry="6.0" x="984.0" y="598.3858582251266" width="52.0" height="52.0" class="key"/>
<text x="1010.0" y="624.3858582251266" class="tap">F10</text>
<rect rx="6.0" ry="6.0" x="32.0" y="654.3858582251266" width="52.0" height="52.0" class="trans key"/>
<text x="58.0" y="680.3858582251266" class="trans tap">▽</text>
<rect rx="6.0" ry="6.0" x="88.0" y="654.3858582251266" width="52.0" height="52.0" class="trans key"/>
<text x="114.0" y="680.3858582251266" class="trans tap">▽</text>
<rect rx="6.0" ry="6.0" x="144.0" y="626.3858582251266" width="52.0" height="52.0" class="trans key"/>
<text x="170.0" y="652.3858582251266" class="trans tap">▽</text>
<rect rx="6.0" ry="6.0" x="200.0" y="626.3858582251266" width="52.0" height="52.0" class="trans key"/>
<text x="226.0" y="652.3858582251266" class="trans tap">▽</text>
<rect rx="6.0" ry="6.0" x="256.0" y="626.3858582251266" width="52.0" height="52.0" class="trans key"/>
<text x="282.0" y="652.3858582251266" class="trans tap">▽</text>
<rect rx="6.0" ry="6.0" x="312.0" y="626.3858582251266" width="52.0" height="52.0" class="trans key"/>
<text x="338.0" y="652.3858582251266" class="trans tap">▽</text>
<rect rx="6.0" ry="6.0" x="704.0" y="626.3858582251266" width="52.0" height="52.0" class="trans key"/>
<text x="730.0" y="652.3858582251266" class="trans tap">▽</text>
<rect rx="6.0" ry="6.0" x="760.0" y="626.3858582251266" width="52.0" height="52.0" class="trans key"/>
<text x="786.0" y="652.3858582251266" class="trans tap">▽</text>
<rect rx="6.0" ry="6.0" x="816.0" y="626.3858582251266" width="52.0" height="52.0" class="trans key"/>
<text x="842.0" y="652.3858582251266" class="trans tap">▽</text>
<rect rx="6.0" ry="6.0" x="872.0" y="626.3858582251266" width="52.0" height="52.0" class="trans key"/>
<text x="898.0" y="652.3858582251266" class="trans tap">▽</text>
<rect rx="6.0" ry="6.0" x="928.0" y="654.3858582251266" width="52.0" height="52.0" class="trans key"/>
<text x="954.0" y="680.3858582251266" class="trans tap">▽</text>
<rect rx="6.0" ry="6.0" x="984.0" y="654.3858582251266" width="52.0" height="52.0" class="trans key"/>
<text x="1010.0" y="680.3858582251266" class="trans tap">▽</text>
<rect rx="6.0" ry="6.0" x="32.0" y="710.3858582251266" width="52.0" height="52.0" class="trans key"/>
<text x="58.0" y="736.3858582251266" class="trans tap">▽</text>
<rect rx="6.0" ry="6.0" x="88.0" y="710.3858582251266" width="52.0" height="52.0" class="trans key"/>
<text x="114.0" y="736.3858582251266" class="trans tap">▽</text>
<rect rx="6.0" ry="6.0" x="144.0" y="682.3858582251266" width="52.0" height="52.0" class="trans key"/>
<text x="170.0" y="708.3858582251266" class="trans tap">▽</text>
<rect rx="6.0" ry="6.0" x="200.0" y="682.3858582251266" width="52.0" height="52.0" class="trans key"/>
<text x="226.0" y="708.3858582251266" class="trans tap">▽</text>
<rect rx="6.0" ry="6.0" x="256.0" y="682.3858582251266" width="52.0" height="52.0" class="trans key"/>
<text x="282.0" y="708.3858582251266" class="trans tap">▽</text>
<rect rx="6.0" ry="6.0" x="312.0" y="682.3858582251266" width="52.0" height="52.0" class="trans key"/>
<text x="338.0" y="708.3858582251266" class="trans tap">▽</text>
<rect rx="6.0" ry="6.0" x="704.0" y="682.3858582251266" width="52.0" height="52.0" class="trans key"/>
<text x="730.0" y="708.3858582251266" class="trans tap">▽</text>
<rect rx="6.0" ry="6.0" x="760.0" y="682.3858582251266" width="52.0" height="52.0" class="trans key"/>
<text x="786.0" y="708.3858582251266" class="trans tap">▽</text>
<rect rx="6.0" ry="6.0" x="816.0" y="682.3858582251266" width="52.0" height="52.0" class="trans key"/>
<text x="842.0" y="708.3858582251266" class="trans tap">▽</text>
<rect rx="6.0" ry="6.0" x="872.0" y="682.3858582251266" width="52.0" height="52.0" class="trans key"/>
<text x="898.0" y="708.3858582251266" class="trans tap">▽</text>
<rect rx="6.0" ry="6.0" x="928.0" y="710.3858582251266" width="52.0" height="52.0" class="trans key"/>
<text x="954.0" y="736.3858582251266" class="trans tap">▽</text>
<rect rx="6.0" ry="6.0" x="984.0" y="710.3858582251266" width="52.0" height="52.0" class="trans key"/>
<text x="1010.0" y="736.3858582251266" class="trans tap">▽</text>
<rect rx="6.0" ry="6.0" x="32.0" y="766.3858582251266" width="52.0" height="52.0" class="trans key"/>
<text x="58.0" y="792.3858582251266" class="trans tap">▽</text>
<rect rx="6.0" ry="6.0" x="88.0" y="766.3858582251266" width="52.0" height="52.0" class="trans key"/>
<text x="114.0" y="792.3858582251266" class="trans tap">▽</text>
<rect rx="6.0" ry="6.0" x="144.0" y="738.3858582251266" width="52.0" height="52.0" class="trans key"/>
<text x="170.0" y="764.3858582251266" class="trans tap">▽</text>
<rect rx="6.0" ry="6.0" x="200.0" y="738.3858582251266" width="52.0" height="52.0" class="trans key"/>
<text x="226.0" y="764.3858582251266" class="trans tap">▽</text>
<rect rx="6.0" ry="6.0" x="256.0" y="738.3858582251266" width="52.0" height="52.0" class="trans key"/>
<text x="282.0" y="764.3858582251266" class="trans tap">▽</text>
<rect rx="6.0" ry="6.0" x="312.0" y="738.3858582251266" width="52.0" height="52.0" class="trans key"/>
<text x="338.0" y="764.3858582251266" class="trans tap">▽</text>
<rect rx="6.0" ry="6.0" x="704.0" y="738.3858582251266" width="52.0" height="52.0" class="key"/>
<use href="#mdi:arrow-left" xlink:href="#mdi:arrow-left" x="723.0" y="757.3858582251266" height="14" width="14.0" class="tap glyph mdi:arrow-left"/>
<rect rx="6.0" ry="6.0" x="760.0" y="738.3858582251266" width="52.0" height="52.0" class="key"/>
<use href="#mdi:arrow-down" xlink:href="#mdi:arrow-down" x="779.0" y="757.3858582251266" height="14" width="14.0" class="tap glyph mdi:arrow-down"/>
<rect rx="6.0" ry="6.0" x="816.0" y="738.3858582251266" width="52.0" height="52.0" class="key"/>
<use href="#mdi:arrow-up" xlink:href="#mdi:arrow-up" x="835.0" y="757.3858582251266" height="14" width="14.0" class="tap glyph mdi:arrow-up"/>
<rect rx="6.0" ry="6.0" x="872.0" y="738.3858582251266" width="52.0" height="52.0" class="key"/>
<use href="#mdi:arrow-right" xlink:href="#mdi:arrow-right" x="891.0" y="757.3858582251266" height="14" width="14.0" class="tap glyph mdi:arrow-right"/>
<rect rx="6.0" ry="6.0" x="928.0" y="766.3858582251266" width="52.0" height="52.0" class="trans key"/>
<text x="954.0" y="792.3858582251266" class="trans tap">▽</text>
<rect rx="6.0" ry="6.0" x="984.0" y="766.3858582251266" width="52.0" height="52.0" class="trans key"/>
<text x="1010.0" y="792.3858582251266" class="trans tap">▽</text>
<rect rx="6.0" ry="6.0" x="32.0" y="822.3858582251266" width="52.0" height="52.0" class="trans key"/>
<text x="58.0" y="848.3858582251266" class="trans tap">▽</text>
<rect rx="6.0" ry="6.0" x="88.0" y="822.3858582251266" width="52.0" height="52.0" class="trans key"/>
<text x="114.0" y="848.3858582251266" class="trans tap">▽</text>
<rect rx="6.0" ry="6.0" x="144.0" y="794.3858582251266" width="52.0" height="52.0" class="trans key"/>
<text x="170.0" y="820.3858582251266" class="trans tap">▽</text>
<rect rx="6.0" ry="6.0" x="200.0" y="794.3858582251266" width="52.0" height="52.0" class="trans key"/>
<text x="226.0" y="820.3858582251266" class="trans tap">▽</text>
<rect rx="6.0" ry="6.0" x="256.0" y="794.3858582251266" width="52.0" height="52.0" class="trans key"/>
<text x="282.0" y="820.3858582251266" class="trans tap">▽</text>
<rect rx="6.0" ry="6.0" x="312.0" y="794.3858582251266" width="52.0" height="52.0" class="trans key"/>
<text x="338.0" y="820.3858582251266" class="trans tap">▽</text>
<g transform="rotate(20.0, 397.02951760251284, 874.2413228832206)">
<rect rx="6.0" ry="6.0" x="371.02951760251284" y="848.2413228832206" width="52.0" height="52.0" class="trans key"/>
<text x="397.02951760251284" y="874.2413228832206" class="trans tap">▽</text>
</g>
<g transform="rotate(30.0, 448.5389172312929, 897.8345695310909)">
<rect rx="6.0" ry="6.0" x="422.5389172312929" y="871.8345695310909" width="52.0" height="52.0" class="trans key"/>
<text x="448.5389172312929" y="897.8345695310909" class="trans tap">▽</text>
</g>
<g transform="rotate(45.0, 495.5476764533247, 933.531514424898)">
<rect rx="6.0" ry="6.0" x="469.5476764533247" y="907.531514424898" width="52.0" height="52.0" class="trans key"/>
<text x="495.5476764533247" y="933.531514424898" class="trans tap">▽</text>
</g>
<g transform="rotate(-45.0, 576.4121215213199, 929.5717164502532)">
<rect rx="6.0" ry="6.0" x="550.4121215213199" y="903.5717164502532" width="52.0" height="52.0" class="trans key"/>
<text x="576.4121215213199" y="929.5717164502532" class="trans tap">▽</text>
</g>
<g transform="rotate(-30.0, 624.3108250299001, 895.0345695310908)">
<rect rx="6.0" ry="6.0" x="598.3108250299001" y="869.0345695310908" width="52.0" height="52.0" class="trans key"/>
<text x="624.3108250299001" y="895.0345695310908" class="trans tap">▽</text>
</g>
<g transform="rotate(-20.0, 676.2327610738882, 872.3260100805969)">
<rect rx="6.0" ry="6.0" x="650.2327610738882" y="846.3260100805969" width="52.0" height="52.0" class="trans key"/>
<text x="676.2327610738882" y="872.3260100805969" class="trans tap">▽</text>
</g>
<rect rx="6.0" ry="6.0" x="704.0" y="794.3858582251266" width="52.0" height="52.0" class="trans key"/>
<text x="730.0" y="820.3858582251266" class="trans tap">▽</text>
<rect rx="6.0" ry="6.0" x="760.0" y="794.3858582251266" width="52.0" height="52.0" class="trans key"/>
<text x="786.0" y="820.3858582251266" class="trans tap">▽</text>
<rect rx="6.0" ry="6.0" x="816.0" y="794.3858582251266" width="52.0" height="52.0" class="trans key"/>
<text x="842.0" y="820.3858582251266" class="trans tap">▽</text>
<rect rx="6.0" ry="6.0" x="872.0" y="794.3858582251266" width="52.0" height="52.0" class="trans key"/>
<text x="898.0" y="820.3858582251266" class="trans tap">▽</text>
<rect rx="6.0" ry="6.0" x="928.0" y="822.3858582251266" width="52.0" height="52.0" class="trans key"/>
<text x="954.0" y="848.3858582251266" class="trans tap">▽</text>
<rect rx="6.0" ry="6.0" x="984.0" y="822.3858582251266" width="52.0" height="52.0" class="trans key"/>
<text x="1010.0" y="848.3858582251266" class="trans tap">▽</text>
<rect rx="6.0" ry="6.0" x="32.0" y="878.3858582251266" width="52.0" height="52.0" class="key"/>
<use href="#mdi:auto-fix" xlink:href="#mdi:auto-fix" x="51.0" y="897.3858582251266" height="14" width="14.0" class="tap glyph mdi:auto-fix"/>
<rect rx="6.0" ry="6.0" x="88.0" y="878.3858582251266" width="52.0" height="52.0" class="trans key"/>
<text x="114.0" y="904.3858582251266" class="trans tap">▽</text>
<rect rx="6.0" ry="6.0" x="144.0" y="850.3858582251266" width="52.0" height="52.0" class="trans key"/>
<text x="170.0" y="876.3858582251266" class="trans tap">▽</text>
<rect rx="6.0" ry="6.0" x="200.0" y="850.3858582251266" width="52.0" height="52.0" class="trans key"/>
<text x="226.0" y="876.3858582251266" class="trans tap">▽</text>
<rect rx="6.0" ry="6.0" x="256.0" y="850.3858582251266" width="52.0" height="52.0" class="trans key"/>
<text x="282.0" y="876.3858582251266" class="trans tap">▽</text>
<g transform="rotate(15.0, 344.1183900270675, 923.9207411075547)">
<rect rx="6.0" ry="6.0" x="318.1183900270675" y="897.9207411075547" width="52.0" height="52.0" class="trans key"/>
<text x="344.1183900270675" y="923.9207411075547" class="trans tap">▽</text>
</g>
<g transform="rotate(25.0, 399.5017205008228, 947.1290065003383)">
<rect rx="6.0" ry="6.0" x="373.5017205008228" y="921.1290065003383" width="52.0" height="52.0" class="held key"/>
</g>
<g transform="rotate(45.0, 451.9898987322333, 985.1737367038065)">
<rect rx="6.0" ry="6.0" x="425.9898987322333" y="959.1737367038065" width="52.0" height="52.0" class="trans key"/>
<text x="451.9898987322333" y="985.1737367038065" class="trans tap">▽</text>
</g>
<g transform="rotate(-45.0, 616.0101012677667, 985.1737367038065)">
<rect rx="6.0" ry="6.0" x="590.0101012677667" y="959.1737367038065" width="52.0" height="52.0" class="trans key"/>
<text x="616.0101012677667" y="985.1737367038065" class="trans tap">▽</text>
</g>
<g transform="rotate(-25.0, 668.4982794991772, 947.1290065003383)">
<rect rx="6.0" ry="6.0" x="642.4982794991772" y="921.1290065003383" width="52.0" height="52.0" class="key"/>
<use href="#mdi:backspace-reverse-outline" xlink:href="#mdi:backspace-reverse-outline" x="661.4982794991772" y="940.1290065003383" height="14" width="14.0" class="tap glyph mdi:backspace-reverse-outline"/>
</g>
<g transform="rotate(-15.0, 723.8816099729324, 923.9207411075547)">
<rect rx="6.0" ry="6.0" x="697.8816099729324" y="897.9207411075547" width="52.0" height="52.0" class="trans key"/>
<text x="723.8816099729324" y="923.9207411075547" class="trans tap">▽</text>
</g>
<rect rx="6.0" ry="6.0" x="760.0" y="850.3858582251266" width="52.0" height="52.0" class="trans key"/>
<text x="786.0" y="876.3858582251266" class="trans tap">▽</text>
<rect rx="6.0" ry="6.0" x="816.0" y="850.3858582251266" width="52.0" height="52.0" class="trans key"/>
<text x="842.0" y="876.3858582251266" class="trans tap">▽</text>
<rect rx="6.0" ry="6.0" x="872.0" y="850.3858582251266" width="52.0" height="52.0" class="trans key"/>
<text x="898.0" y="876.3858582251266" class="trans tap">▽</text>
<rect rx="6.0" ry="6.0" x="928.0" y="878.3858582251266" width="52.0" height="52.0" class="trans key"/>
<text x="954.0" y="904.3858582251266" class="trans tap">▽</text>
<rect rx="6.0" ry="6.0" x="984.0" y="878.3858582251266" width="52.0" height="52.0" class="trans key"/>
<text x="1010.0" y="904.3858582251266" class="trans tap">▽</text>
</g>
<g class="layer-Magic">
<text x="30.0" y="1052.7717164502533" class="label">Magic:</text>
<rect rx="6.0" ry="6.0" x="32.0" y="1110.7717164502533" width="52.0" height="52.0" class="key"/>
<text x="58.0" y="1136.7717164502533" class="tap">
<tspan x="58.0" dy="-0.6em">BT</tspan><tspan x="58.0" dy="1.2em">CLR</tspan></text>
<rect rx="6.0" ry="6.0" x="88.0" y="1110.7717164502533" width="52.0" height="52.0" class="key"/>
<rect rx="6.0" ry="6.0" x="144.0" y="1082.7717164502533" width="52.0" height="52.0" class="key"/>
<rect rx="6.0" ry="6.0" x="200.0" y="1082.7717164502533" width="52.0" height="52.0" class="key"/>
<rect rx="6.0" ry="6.0" x="256.0" y="1082.7717164502533" width="52.0" height="52.0" class="key"/>
<rect rx="6.0" ry="6.0" x="760.0" y="1082.7717164502533" width="52.0" height="52.0" class="key"/>
<rect rx="6.0" ry="6.0" x="816.0" y="1082.7717164502533" width="52.0" height="52.0" class="key"/>
<rect rx="6.0" ry="6.0" x="872.0" y="1082.7717164502533" width="52.0" height="52.0" class="key"/>
<rect rx="6.0" ry="6.0" x="928.0" y="1110.7717164502533" width="52.0" height="52.0" class="key"/>
<rect rx="6.0" ry="6.0" x="984.0" y="1110.7717164502533" width="52.0" height="52.0" class="key"/>
<text x="1010.0" y="1136.7717164502533" class="tap">
<tspan x="1010.0" dy="-1.2em">BT</tspan><tspan x="1010.0" dy="1.2em">CLR</tspan><tspan x="1010.0" dy="1.2em">ALL</tspan></text>
<rect rx="6.0" ry="6.0" x="32.0" y="1166.7717164502533" width="52.0" height="52.0" class="key"/>
<rect rx="6.0" ry="6.0" x="88.0" y="1166.7717164502533" width="52.0" height="52.0" class="key"/>
<rect rx="6.0" ry="6.0" x="144.0" y="1138.7717164502533" width="52.0" height="52.0" class="key"/>
<rect rx="6.0" ry="6.0" x="200.0" y="1138.7717164502533" width="52.0" height="52.0" class="key"/>
<rect rx="6.0" ry="6.0" x="256.0" y="1138.7717164502533" width="52.0" height="52.0" class="key"/>
<rect rx="6.0" ry="6.0" x="312.0" y="1138.7717164502533" width="52.0" height="52.0" class="key"/>
<rect rx="6.0" ry="6.0" x="704.0" y="1138.7717164502533" width="52.0" height="52.0" class="key"/>
<rect rx="6.0" ry="6.0" x="760.0" y="1138.7717164502533" width="52.0" height="52.0" class="key"/>
<rect rx="6.0" ry="6.0" x="816.0" y="1138.7717164502533" width="52.0" height="52.0" class="key"/>
<rect rx="6.0" ry="6.0" x="872.0" y="1138.7717164502533" width="52.0" height="52.0" class="key"/>
<rect rx="6.0" ry="6.0" x="928.0" y="1166.7717164502533" width="52.0" height="52.0" class="key"/>
<rect rx="6.0" ry="6.0" x="984.0" y="1166.7717164502533" width="52.0" height="52.0" class="key"/>
<rect rx="6.0" ry="6.0" x="32.0" y="1222.7717164502533" width="52.0" height="52.0" class="key"/>
<rect rx="6.0" ry="6.0" x="88.0" y="1222.7717164502533" width="52.0" height="52.0" class="key"/>
<text x="114.0" y="1248.7717164502533" class="tap">
<tspan x="114.0" dy="-0.6em">RGB</tspan><tspan x="114.0" dy="1.2em">SPI</tspan></text>
<rect rx="6.0" ry="6.0" x="144.0" y="1194.7717164502533" width="52.0" height="52.0" class="key"/>
<text x="170.0" y="1220.7717164502533" class="tap">
<tspan x="170.0" dy="-0.6em">RGB</tspan><tspan x="170.0" dy="1.2em">SAI</tspan></text>
<rect rx="6.0" ry="6.0" x="200.0" y="1194.7717164502533" width="52.0" height="52.0" class="key"/>
<text x="226.0" y="1220.7717164502533" class="tap">
<tspan x="226.0" dy="-0.6em">RGB</tspan><tspan x="226.0" dy="1.2em">HUI</tspan></text>
<rect rx="6.0" ry="6.0" x="256.0" y="1194.7717164502533" width="52.0" height="52.0" class="key"/>
<text x="282.0" y="1220.7717164502533" class="tap">
<tspan x="282.0" dy="-0.6em">RGB</tspan><tspan x="282.0" dy="1.2em">BRI</tspan></text>
<rect rx="6.0" ry="6.0" x="312.0" y="1194.7717164502533" width="52.0" height="52.0" class="key"/>
<text x="338.0" y="1220.7717164502533" class="tap">
<tspan x="338.0" dy="-0.6em">RGB</tspan><tspan x="338.0" dy="1.2em">TOG</tspan></text>
<rect rx="6.0" ry="6.0" x="704.0" y="1194.7717164502533" width="52.0" height="52.0" class="key"/>
<rect rx="6.0" ry="6.0" x="760.0" y="1194.7717164502533" width="52.0" height="52.0" class="key"/>
<rect rx="6.0" ry="6.0" x="816.0" y="1194.7717164502533" width="52.0" height="52.0" class="key"/>
<rect rx="6.0" ry="6.0" x="872.0" y="1194.7717164502533" width="52.0" height="52.0" class="key"/>
<rect rx="6.0" ry="6.0" x="928.0" y="1222.7717164502533" width="52.0" height="52.0" class="key"/>
<rect rx="6.0" ry="6.0" x="984.0" y="1222.7717164502533" width="52.0" height="52.0" class="key"/>
<rect rx="6.0" ry="6.0" x="32.0" y="1278.7717164502533" width="52.0" height="52.0" class="key"/>
<text x="58.0" y="1304.7717164502533" class="tap">Boot</text>
<rect rx="6.0" ry="6.0" x="88.0" y="1278.7717164502533" width="52.0" height="52.0" class="key"/>
<text x="114.0" y="1304.7717164502533" class="tap">
<tspan x="114.0" dy="-0.6em">RGB</tspan><tspan x="114.0" dy="1.2em">SPD</tspan></text>
<rect rx="6.0" ry="6.0" x="144.0" y="1250.7717164502533" width="52.0" height="52.0" class="key"/>
<text x="170.0" y="1276.7717164502533" class="tap">
<tspan x="170.0" dy="-0.6em">RGB</tspan><tspan x="170.0" dy="1.2em">SAD</tspan></text>
<rect rx="6.0" ry="6.0" x="200.0" y="1250.7717164502533" width="52.0" height="52.0" class="key"/>
<text x="226.0" y="1276.7717164502533" class="tap">
<tspan x="226.0" dy="-0.6em">RGB</tspan><tspan x="226.0" dy="1.2em">HUD</tspan></text>
<rect rx="6.0" ry="6.0" x="256.0" y="1250.7717164502533" width="52.0" height="52.0" class="key"/>
<text x="282.0" y="1276.7717164502533" class="tap">
<tspan x="282.0" dy="-0.6em">RGB</tspan><tspan x="282.0" dy="1.2em">BRD</tspan></text>
<rect rx="6.0" ry="6.0" x="312.0" y="1250.7717164502533" width="52.0" height="52.0" class="key"/>
<text x="338.0" y="1276.7717164502533" class="tap">
<tspan x="338.0" dy="-0.6em">RGB</tspan><tspan x="338.0" dy="1.2em">EFF</tspan></text>
<rect rx="6.0" ry="6.0" x="704.0" y="1250.7717164502533" width="52.0" height="52.0" class="key"/>
<rect rx="6.0" ry="6.0" x="760.0" y="1250.7717164502533" width="52.0" height="52.0" class="key"/>
<rect rx="6.0" ry="6.0" x="816.0" y="1250.7717164502533" width="52.0" height="52.0" class="key"/>
<rect rx="6.0" ry="6.0" x="872.0" y="1250.7717164502533" width="52.0" height="52.0" class="key"/>
<rect rx="6.0" ry="6.0" x="928.0" y="1278.7717164502533" width="52.0" height="52.0" class="key"/>
<rect rx="6.0" ry="6.0" x="984.0" y="1278.7717164502533" width="52.0" height="52.0" class="key"/>
<text x="1010.0" y="1304.7717164502533" class="tap">Boot</text>
<rect rx="6.0" ry="6.0" x="32.0" y="1334.7717164502533" width="52.0" height="52.0" class="key"/>
<text x="58.0" y="1360.7717164502533" class="tap">Reset</text>
<rect rx="6.0" ry="6.0" x="88.0" y="1334.7717164502533" width="52.0" height="52.0" class="key"/>
<rect rx="6.0" ry="6.0" x="144.0" y="1306.7717164502533" width="52.0" height="52.0" class="key"/>
<rect rx="6.0" ry="6.0" x="200.0" y="1306.7717164502533" width="52.0" height="52.0" class="key"/>
<rect rx="6.0" ry="6.0" x="256.0" y="1306.7717164502533" width="52.0" height="52.0" class="key"/>
<rect rx="6.0" ry="6.0" x="312.0" y="1306.7717164502533" width="52.0" height="52.0" class="key"/>
<g transform="rotate(20.0, 397.02951760251284, 1386.6271811083473)">
<rect rx="6.0" ry="6.0" x="371.02951760251284" y="1360.6271811083473" width="52.0" height="52.0" class="key"/>
<use href="#mdi:numeric-2" xlink:href="#mdi:numeric-2" x="390.02951760251284" y="1379.6271811083473" height="14" width="14.0" class="tap glyph mdi:numeric-2"/>
<use href="#mdi:bluetooth" xlink:href="#mdi:bluetooth" x="391.02951760251284" y="1398.6271811083473" height="12" width="12.0" class="hold glyph mdi:bluetooth"/>
</g>
<g transform="rotate(30.0, 448.5389172312929, 1410.2204277562175)">
<rect rx="6.0" ry="6.0" x="422.5389172312929" y="1384.2204277562175" width="52.0" height="52.0" class="key"/>
<use href="#mdi:numeric-3" xlink:href="#mdi:numeric-3" x="441.5389172312929" y="1403.2204277562175" height="14" width="14.0" class="tap glyph mdi:numeric-3"/>
<use href="#mdi:bluetooth" xlink:href="#mdi:bluetooth" x="442.5389172312929" y="1422.2204277562175" height="12" width="12.0" class="hold glyph mdi:bluetooth"/>
</g>
<g transform="rotate(45.0, 495.5476764533247, 1445.9173726500246)">
<rect rx="6.0" ry="6.0" x="469.5476764533247" y="1419.9173726500246" width="52.0" height="52.0" class="key"/>
</g>
<g transform="rotate(-45.0, 576.4121215213199, 1441.9575746753799)">
<rect rx="6.0" ry="6.0" x="550.4121215213199" y="1415.9575746753799" width="52.0" height="52.0" class="key"/>
</g>
<g transform="rotate(-30.0, 624.3108250299001, 1407.4204277562176)">
<rect rx="6.0" ry="6.0" x="598.3108250299001" y="1381.4204277562176" width="52.0" height="52.0" class="key"/>
</g>
<g transform="rotate(-20.0, 676.2327610738882, 1384.7118683057236)">
<rect rx="6.0" ry="6.0" x="650.2327610738882" y="1358.7118683057236" width="52.0" height="52.0" class="key"/>
</g>
<rect rx="6.0" ry="6.0" x="704.0" y="1306.7717164502533" width="52.0" height="52.0" class="key"/>
<rect rx="6.0" ry="6.0" x="760.0" y="1306.7717164502533" width="52.0" height="52.0" class="key"/>
<rect rx="6.0" ry="6.0" x="816.0" y="1306.7717164502533" width="52.0" height="52.0" class="key"/>
<rect rx="6.0" ry="6.0" x="872.0" y="1306.7717164502533" width="52.0" height="52.0" class="key"/>
<rect rx="6.0" ry="6.0" x="928.0" y="1334.7717164502533" width="52.0" height="52.0" class="key"/>
<rect rx="6.0" ry="6.0" x="984.0" y="1334.7717164502533" width="52.0" height="52.0" class="key"/>
<text x="1010.0" y="1360.7717164502533" class="tap">Reset</text>
<rect rx="6.0" ry="6.0" x="32.0" y="1390.7717164502533" width="52.0" height="52.0" class="key"/>
<rect rx="6.0" ry="6.0" x="88.0" y="1390.7717164502533" width="52.0" height="52.0" class="key"/>
<rect rx="6.0" ry="6.0" x="144.0" y="1362.7717164502533" width="52.0" height="52.0" class="key"/>
<rect rx="6.0" ry="6.0" x="200.0" y="1362.7717164502533" width="52.0" height="52.0" class="key"/>
<rect rx="6.0" ry="6.0" x="256.0" y="1362.7717164502533" width="52.0" height="52.0" class="key"/>
<g transform="rotate(15.0, 344.1183900270675, 1436.3065993326813)">
<rect rx="6.0" ry="6.0" x="318.1183900270675" y="1410.3065993326813" width="52.0" height="52.0" class="key"/>
<use href="#mdi:numeric-0" xlink:href="#mdi:numeric-0" x="337.1183900270675" y="1429.3065993326813" height="14" width="14.0" class="tap glyph mdi:numeric-0"/>
<use href="#mdi:bluetooth" xlink:href="#mdi:bluetooth" x="338.1183900270675" y="1448.3065993326813" height="12" width="12.0" class="hold glyph mdi:bluetooth"/>
</g>
<g transform="rotate(25.0, 399.5017205008228, 1459.514864725465)">
<rect rx="6.0" ry="6.0" x="373.5017205008228" y="1433.514864725465" width="52.0" height="52.0" class="key"/>
<use href="#mdi:numeric-1" xlink:href="#mdi:numeric-1" x="392.5017205008228" y="1452.514864725465" height="14" width="14.0" class="tap glyph mdi:numeric-1"/>
<use href="#mdi:bluetooth" xlink:href="#mdi:bluetooth" x="393.5017205008228" y="1471.514864725465" height="12" width="12.0" class="hold glyph mdi:bluetooth"/>
</g>
<g transform="rotate(45.0, 451.9898987322333, 1497.5595949289332)">
<rect rx="6.0" ry="6.0" x="425.9898987322333" y="1471.5595949289332" width="52.0" height="52.0" class="key"/>
<use href="#mdi:usb" xlink:href="#mdi:usb" x="444.9898987322333" y="1490.5595949289332" height="14" width="14.0" class="tap glyph mdi:usb"/>
</g>
<g transform="rotate(-45.0, 616.0101012677667, 1497.5595949289332)">
<rect rx="6.0" ry="6.0" x="590.0101012677667" y="1471.5595949289332" width="52.0" height="52.0" class="key"/>
</g>
<g transform="rotate(-25.0, 668.4982794991772, 1459.514864725465)">
<rect rx="6.0" ry="6.0" x="642.4982794991772" y="1433.514864725465" width="52.0" height="52.0" class="key"/>
</g>
<g transform="rotate(-15.0, 723.8816099729324, 1436.3065993326813)">
<rect rx="6.0" ry="6.0" x="697.8816099729324" y="1410.3065993326813" width="52.0" height="52.0" class="key"/>
</g>
<rect rx="6.0" ry="6.0" x="760.0" y="1362.7717164502533" width="52.0" height="52.0" class="key"/>
<rect rx="6.0" ry="6.0" x="816.0" y="1362.7717164502533" width="52.0" height="52.0" class="key"/>
<rect rx="6.0" ry="6.0" x="872.0" y="1362.7717164502533" width="52.0" height="52.0" class="key"/>
<rect rx="6.0" ry="6.0" x="928.0" y="1390.7717164502533" width="52.0" height="52.0" class="key"/>
<rect rx="6.0" ry="6.0" x="984.0" y="1390.7717164502533" width="52.0" height="52.0" class="key"/>
</g>
<g class="layer-Symbol">
<text x="30.0" y="1565.15757467538" class="label">Symbol:</text>
<rect rx="6.0" ry="6.0" x="32.0" y="1623.15757467538" width="52.0" height="52.0" class="key"/>
<rect rx="6.0" ry="6.0" x="88.0" y="1623.15757467538" width="52.0" height="52.0" class="key"/>
<rect rx="6.0" ry="6.0" x="144.0" y="1595.15757467538" width="52.0" height="52.0" class="key"/>
<rect rx="6.0" ry="6.0" x="200.0" y="1595.15757467538" width="52.0" height="52.0" class="key"/>
<rect rx="6.0" ry="6.0" x="256.0" y="1595.15757467538" width="52.0" height="52.0" class="key"/>
<rect rx="6.0" ry="6.0" x="760.0" y="1595.15757467538" width="52.0" height="52.0" class="key"/>
<rect rx="6.0" ry="6.0" x="816.0" y="1595.15757467538" width="52.0" height="52.0" class="key"/>
<rect rx="6.0" ry="6.0" x="872.0" y="1595.15757467538" width="52.0" height="52.0" class="key"/>
<rect rx="6.0" ry="6.0" x="928.0" y="1623.15757467538" width="52.0" height="52.0" class="key"/>
<rect rx="6.0" ry="6.0" x="984.0" y="1623.15757467538" width="52.0" height="52.0" class="key"/>
<rect rx="6.0" ry="6.0" x="32.0" y="1679.15757467538" width="52.0" height="52.0" class="key"/>
<text x="58.0" y="1705.15757467538" class="tap">,</text>
<rect rx="6.0" ry="6.0" x="88.0" y="1679.15757467538" width="52.0" height="52.0" class="key"/>
<text x="114.0" y="1705.15757467538" class="tap">[</text>
<rect rx="6.0" ry="6.0" x="144.0" y="1651.15757467538" width="52.0" height="52.0" class="key"/>
<text x="170.0" y="1677.15757467538" class="tap">(</text>
<rect rx="6.0" ry="6.0" x="200.0" y="1651.15757467538" width="52.0" height="52.0" class="key"/>
<text x="226.0" y="1677.15757467538" class="tap">)</text>
<rect rx="6.0" ry="6.0" x="256.0" y="1651.15757467538" width="52.0" height="52.0" class="key"/>
<text x="282.0" y="1677.15757467538" class="tap">]</text>
<rect rx="6.0" ry="6.0" x="312.0" y="1651.15757467538" width="52.0" height="52.0" class="key"/>
<text x="338.0" y="1677.15757467538" class="tap">;</text>
<rect rx="6.0" ry="6.0" x="704.0" y="1651.15757467538" width="52.0" height="52.0" class="key"/>
<rect rx="6.0" ry="6.0" x="760.0" y="1651.15757467538" width="52.0" height="52.0" class="key"/>
<rect rx="6.0" ry="6.0" x="816.0" y="1651.15757467538" width="52.0" height="52.0" class="key"/>
<rect rx="6.0" ry="6.0" x="872.0" y="1651.15757467538" width="52.0" height="52.0" class="key"/>
<rect rx="6.0" ry="6.0" x="928.0" y="1679.15757467538" width="52.0" height="52.0" class="key"/>
<rect rx="6.0" ry="6.0" x="984.0" y="1679.15757467538" width="52.0" height="52.0" class="key"/>
<rect rx="6.0" ry="6.0" x="32.0" y="1735.15757467538" width="52.0" height="52.0" class="key"/>
<text x="58.0" y="1761.15757467538" class="tap">~</text>
<rect rx="6.0" ry="6.0" x="88.0" y="1735.15757467538" width="52.0" height="52.0" class="key"/>
<text x="114.0" y="1761.15757467538" class="tap">{</text>
<rect rx="6.0" ry="6.0" x="144.0" y="1707.15757467538" width="52.0" height="52.0" class="key"/>
<text x="170.0" y="1733.15757467538" class="tap">&quot;</text>
<rect rx="6.0" ry="6.0" x="200.0" y="1707.15757467538" width="52.0" height="52.0" class="key"/>
<text x="226.0" y="1733.15757467538" class="tap">`</text>
<rect rx="6.0" ry="6.0" x="256.0" y="1707.15757467538" width="52.0" height="52.0" class="key"/>
<text x="282.0" y="1733.15757467538" class="tap">}</text>
<rect rx="6.0" ry="6.0" x="312.0" y="1707.15757467538" width="52.0" height="52.0" class="key"/>
<text x="338.0" y="1733.15757467538" class="tap">?</text>
<rect rx="6.0" ry="6.0" x="704.0" y="1707.15757467538" width="52.0" height="52.0" class="key"/>
<rect rx="6.0" ry="6.0" x="760.0" y="1707.15757467538" width="52.0" height="52.0" class="key"/>
<rect rx="6.0" ry="6.0" x="816.0" y="1707.15757467538" width="52.0" height="52.0" class="key"/>
<rect rx="6.0" ry="6.0" x="872.0" y="1707.15757467538" width="52.0" height="52.0" class="key"/>
<rect rx="6.0" ry="6.0" x="928.0" y="1735.15757467538" width="52.0" height="52.0" class="key"/>
<rect rx="6.0" ry="6.0" x="984.0" y="1735.15757467538" width="52.0" height="52.0" class="key"/>
<rect rx="6.0" ry="6.0" x="32.0" y="1791.15757467538" width="52.0" height="52.0" class="key"/>
<text x="58.0" y="1817.15757467538" class="tap">#</text>
<rect rx="6.0" ry="6.0" x="88.0" y="1791.15757467538" width="52.0" height="52.0" class="key"/>
<text x="114.0" y="1817.15757467538" class="tap">^</text>
<rect rx="6.0" ry="6.0" x="144.0" y="1763.15757467538" width="52.0" height="52.0" class="key"/>
<text x="170.0" y="1789.15757467538" class="tap">=</text>
<rect rx="6.0" ry="6.0" x="200.0" y="1763.15757467538" width="52.0" height="52.0" class="key"/>
<text x="226.0" y="1789.15757467538" class="tap">_</text>
<rect rx="6.0" ry="6.0" x="256.0" y="1763.15757467538" width="52.0" height="52.0" class="key"/>
<text x="282.0" y="1789.15757467538" class="tap">$</text>
<rect rx="6.0" ry="6.0" x="312.0" y="1763.15757467538" width="52.0" height="52.0" class="key"/>
<text x="338.0" y="1789.15757467538" class="tap">*</text>
<rect rx="6.0" ry="6.0" x="704.0" y="1763.15757467538" width="52.0" height="52.0" class="key"/>
<rect rx="6.0" ry="6.0" x="760.0" y="1763.15757467538" width="52.0" height="52.0" class="key"/>
<use href="#mdi:apple-keyboard-shift" xlink:href="#mdi:apple-keyboard-shift" x="779.0" y="1782.15757467538" height="14" width="14.0" class="tap glyph mdi:apple-keyboard-shift"/>
<rect rx="6.0" ry="6.0" x="816.0" y="1763.15757467538" width="52.0" height="52.0" class="key"/>
<use href="#mdi:apple-keyboard-command" xlink:href="#mdi:apple-keyboard-command" x="835.0" y="1782.15757467538" height="14" width="14.0" class="tap glyph mdi:apple-keyboard-command"/>
<rect rx="6.0" ry="6.0" x="872.0" y="1763.15757467538" width="52.0" height="52.0" class="key"/>
<use href="#mdi:apple-keyboard-option" xlink:href="#mdi:apple-keyboard-option" x="891.0" y="1782.15757467538" height="14" width="14.0" class="tap glyph mdi:apple-keyboard-option"/>
<rect rx="6.0" ry="6.0" x="928.0" y="1791.15757467538" width="52.0" height="52.0" class="key"/>
<use href="#mdi:apple-keyboard-control" xlink:href="#mdi:apple-keyboard-control" x="947.0" y="1810.15757467538" height="14" width="14.0" class="tap glyph mdi:apple-keyboard-control"/>
<rect rx="6.0" ry="6.0" x="984.0" y="1791.15757467538" width="52.0" height="52.0" class="key"/>
<rect rx="6.0" ry="6.0" x="32.0" y="1847.15757467538" width="52.0" height="52.0" class="key"/>
<text x="58.0" y="1873.15757467538" class="tap">!</text>
<rect rx="6.0" ry="6.0" x="88.0" y="1847.15757467538" width="52.0" height="52.0" class="key"/>
<text x="114.0" y="1873.15757467538" class="tap">&lt;</text>
<rect rx="6.0" ry="6.0" x="144.0" y="1819.15757467538" width="52.0" height="52.0" class="key"/>
<text x="170.0" y="1845.15757467538" class="tap">|</text>
<rect rx="6.0" ry="6.0" x="200.0" y="1819.15757467538" width="52.0" height="52.0" class="key"/>
<text x="226.0" y="1845.15757467538" class="tap">-</text>
<rect rx="6.0" ry="6.0" x="256.0" y="1819.15757467538" width="52.0" height="52.0" class="key"/>
<text x="282.0" y="1845.15757467538" class="tap">&gt;</text>
<rect rx="6.0" ry="6.0" x="312.0" y="1819.15757467538" width="52.0" height="52.0" class="key"/>
<text x="338.0" y="1845.15757467538" class="tap">/</text>
<g transform="rotate(20.0, 397.02951760251284, 1899.013039333474)">
<rect rx="6.0" ry="6.0" x="371.02951760251284" y="1873.013039333474" width="52.0" height="52.0" class="key"/>
</g>
<g transform="rotate(30.0, 448.5389172312929, 1922.6062859813442)">
<rect rx="6.0" ry="6.0" x="422.5389172312929" y="1896.6062859813442" width="52.0" height="52.0" class="key"/>
</g>
<g transform="rotate(45.0, 495.5476764533247, 1958.3032308751513)">
<rect rx="6.0" ry="6.0" x="469.5476764533247" y="1932.3032308751513" width="52.0" height="52.0" class="key"/>
</g>
<g transform="rotate(-45.0, 576.4121215213199, 1954.3434329005065)">
<rect rx="6.0" ry="6.0" x="550.4121215213199" y="1928.3434329005065" width="52.0" height="52.0" class="key"/>
</g>
<g transform="rotate(-30.0, 624.3108250299001, 1919.806285981344)">
<rect rx="6.0" ry="6.0" x="598.3108250299001" y="1893.806285981344" width="52.0" height="52.0" class="key"/>
</g>
<g transform="rotate(-20.0, 676.2327610738882, 1897.0977265308502)">
<rect rx="6.0" ry="6.0" x="650.2327610738882" y="1871.0977265308502" width="52.0" height="52.0" class="key"/>
</g>
<rect rx="6.0" ry="6.0" x="704.0" y="1819.15757467538" width="52.0" height="52.0" class="key"/>
<rect rx="6.0" ry="6.0" x="760.0" y="1819.15757467538" width="52.0" height="52.0" class="key"/>
<rect rx="6.0" ry="6.0" x="816.0" y="1819.15757467538" width="52.0" height="52.0" class="key"/>
<rect rx="6.0" ry="6.0" x="872.0" y="1819.15757467538" width="52.0" height="52.0" class="key"/>
<use href="#mdi:apple-keyboard-option" xlink:href="#mdi:apple-keyboard-option" x="891.0" y="1838.15757467538" height="14" width="14.0" class="tap glyph mdi:apple-keyboard-option"/>
<rect rx="6.0" ry="6.0" x="928.0" y="1847.15757467538" width="52.0" height="52.0" class="key"/>
<rect rx="6.0" ry="6.0" x="984.0" y="1847.15757467538" width="52.0" height="52.0" class="key"/>
<rect rx="6.0" ry="6.0" x="32.0" y="1903.15757467538" width="52.0" height="52.0" class="key"/>
<rect rx="6.0" ry="6.0" x="88.0" y="1903.15757467538" width="52.0" height="52.0" class="key"/>
<text x="114.0" y="1929.15757467538" class="tap">,</text>
<rect rx="6.0" ry="6.0" x="144.0" y="1875.15757467538" width="52.0" height="52.0" class="key"/>
<text x="170.0" y="1901.15757467538" class="tap">&amp;</text>
<rect rx="6.0" ry="6.0" x="200.0" y="1875.15757467538" width="52.0" height="52.0" class="key"/>
<text x="226.0" y="1901.15757467538" class="tap">+</text>
<rect rx="6.0" ry="6.0" x="256.0" y="1875.15757467538" width="52.0" height="52.0" class="key"/>
<text x="282.0" y="1901.15757467538" class="tap">;</text>
<g transform="rotate(15.0, 344.1183900270675, 1948.692457557808)">
<rect rx="6.0" ry="6.0" x="318.1183900270675" y="1922.692457557808" width="52.0" height="52.0" class="key"/>
</g>
<g transform="rotate(25.0, 399.5017205008228, 1971.9007229505914)">
<rect rx="6.0" ry="6.0" x="373.5017205008228" y="1945.9007229505914" width="52.0" height="52.0" class="key"/>
</g>
<g transform="rotate(45.0, 451.9898987322333, 2009.9454531540598)">
<rect rx="6.0" ry="6.0" x="425.9898987322333" y="1983.9454531540598" width="52.0" height="52.0" class="key"/>
</g>
<g transform="rotate(-45.0, 616.0101012677667, 2009.9454531540598)">
<rect rx="6.0" ry="6.0" x="590.0101012677667" y="1983.9454531540598" width="52.0" height="52.0" class="key"/>
</g>
<g transform="rotate(-25.0, 668.4982794991772, 1971.9007229505914)">
<rect rx="6.0" ry="6.0" x="642.4982794991772" y="1945.9007229505914" width="52.0" height="52.0" class="held key"/>
</g>
<g transform="rotate(-15.0, 723.8816099729324, 1948.692457557808)">
<rect rx="6.0" ry="6.0" x="697.8816099729324" y="1922.692457557808" width="52.0" height="52.0" class="key"/>
</g>
<rect rx="6.0" ry="6.0" x="760.0" y="1875.15757467538" width="52.0" height="52.0" class="key"/>
<rect rx="6.0" ry="6.0" x="816.0" y="1875.15757467538" width="52.0" height="52.0" class="key"/>
<rect rx="6.0" ry="6.0" x="872.0" y="1875.15757467538" width="52.0" height="52.0" class="key"/>
<rect rx="6.0" ry="6.0" x="928.0" y="1903.15757467538" width="52.0" height="52.0" class="key"/>
<rect rx="6.0" ry="6.0" x="984.0" y="1903.15757467538" width="52.0" height="52.0" class="key"/>
</g>
<g class="layer-Mouse">
<text x="30.0" y="2077.5434329005066" class="label">Mouse:</text>
<rect rx="6.0" ry="6.0" x="32.0" y="2135.5434329005066" width="52.0" height="52.0" class="key"/>
<rect rx="6.0" ry="6.0" x="88.0" y="2135.5434329005066" width="52.0" height="52.0" class="key"/>
<rect rx="6.0" ry="6.0" x="144.0" y="2107.5434329005066" width="52.0" height="52.0" class="key"/>
<rect rx="6.0" ry="6.0" x="200.0" y="2107.5434329005066" width="52.0" height="52.0" class="key"/>
<rect rx="6.0" ry="6.0" x="256.0" y="2107.5434329005066" width="52.0" height="52.0" class="key"/>
<rect rx="6.0" ry="6.0" x="760.0" y="2107.5434329005066" width="52.0" height="52.0" class="key"/>
<rect rx="6.0" ry="6.0" x="816.0" y="2107.5434329005066" width="52.0" height="52.0" class="key"/>
<rect rx="6.0" ry="6.0" x="872.0" y="2107.5434329005066" width="52.0" height="52.0" class="key"/>
<rect rx="6.0" ry="6.0" x="928.0" y="2135.5434329005066" width="52.0" height="52.0" class="key"/>
<rect rx="6.0" ry="6.0" x="984.0" y="2135.5434329005066" width="52.0" height="52.0" class="key"/>
<rect rx="6.0" ry="6.0" x="32.0" y="2191.5434329005066" width="52.0" height="52.0" class="key"/>
<rect rx="6.0" ry="6.0" x="88.0" y="2191.5434329005066" width="52.0" height="52.0" class="key"/>
<rect rx="6.0" ry="6.0" x="144.0" y="2163.5434329005066" width="52.0" height="52.0" class="key"/>
<rect rx="6.0" ry="6.0" x="200.0" y="2163.5434329005066" width="52.0" height="52.0" class="key"/>
<rect rx="6.0" ry="6.0" x="256.0" y="2163.5434329005066" width="52.0" height="52.0" class="key"/>
<rect rx="6.0" ry="6.0" x="312.0" y="2163.5434329005066" width="52.0" height="52.0" class="key"/>
<rect rx="6.0" ry="6.0" x="704.0" y="2163.5434329005066" width="52.0" height="52.0" class="key"/>
<rect rx="6.0" ry="6.0" x="760.0" y="2163.5434329005066" width="52.0" height="52.0" class="key"/>
<rect rx="6.0" ry="6.0" x="816.0" y="2163.5434329005066" width="52.0" height="52.0" class="key"/>
<rect rx="6.0" ry="6.0" x="872.0" y="2163.5434329005066" width="52.0" height="52.0" class="key"/>
<rect rx="6.0" ry="6.0" x="928.0" y="2191.5434329005066" width="52.0" height="52.0" class="key"/>
<rect rx="6.0" ry="6.0" x="984.0" y="2191.5434329005066" width="52.0" height="52.0" class="key"/>
<rect rx="6.0" ry="6.0" x="32.0" y="2247.5434329005066" width="52.0" height="52.0" class="key"/>
<rect rx="6.0" ry="6.0" x="88.0" y="2247.5434329005066" width="52.0" height="52.0" class="key"/>
<rect rx="6.0" ry="6.0" x="144.0" y="2219.5434329005066" width="52.0" height="52.0" class="key"/>
<rect rx="6.0" ry="6.0" x="200.0" y="2219.5434329005066" width="52.0" height="52.0" class="key"/>
<rect rx="6.0" ry="6.0" x="256.0" y="2219.5434329005066" width="52.0" height="52.0" class="key"/>
<rect rx="6.0" ry="6.0" x="312.0" y="2219.5434329005066" width="52.0" height="52.0" class="key"/>
<rect rx="6.0" ry="6.0" x="704.0" y="2219.5434329005066" width="52.0" height="52.0" class="key"/>
<rect rx="6.0" ry="6.0" x="760.0" y="2219.5434329005066" width="52.0" height="52.0" class="key"/>
<rect rx="6.0" ry="6.0" x="816.0" y="2219.5434329005066" width="52.0" height="52.0" class="key"/>
<use href="#mdi:arrow-up" xlink:href="#mdi:arrow-up" x="835.0" y="2238.5434329005066" height="14" width="14.0" class="tap glyph mdi:arrow-up"/>
<use href="#mdi:mouse" xlink:href="#mdi:mouse" x="836.0" y="2257.5434329005066" height="12" width="12.0" class="hold glyph mdi:mouse"/>
<rect rx="6.0" ry="6.0" x="872.0" y="2219.5434329005066" width="52.0" height="52.0" class="key"/>
<use href="#mdi:arrow-up" xlink:href="#mdi:arrow-up" x="891.0" y="2238.5434329005066" height="14" width="14.0" class="tap glyph mdi:arrow-up"/>
<use href="#mdi:tire" xlink:href="#mdi:tire" x="892.0" y="2257.5434329005066" height="12" width="12.0" class="hold glyph mdi:tire"/>
<rect rx="6.0" ry="6.0" x="928.0" y="2247.5434329005066" width="52.0" height="52.0" class="key"/>
<rect rx="6.0" ry="6.0" x="984.0" y="2247.5434329005066" width="52.0" height="52.0" class="key"/>
<rect rx="6.0" ry="6.0" x="32.0" y="2303.5434329005066" width="52.0" height="52.0" class="key"/>
<rect rx="6.0" ry="6.0" x="88.0" y="2303.5434329005066" width="52.0" height="52.0" class="key"/>
<use href="#mdi:apple-keyboard-control" xlink:href="#mdi:apple-keyboard-control" x="107.0" y="2322.5434329005066" height="14" width="14.0" class="tap glyph mdi:apple-keyboard-control"/>
<rect rx="6.0" ry="6.0" x="144.0" y="2275.5434329005066" width="52.0" height="52.0" class="key"/>
<use href="#mdi:apple-keyboard-option" xlink:href="#mdi:apple-keyboard-option" x="163.0" y="2294.5434329005066" height="14" width="14.0" class="tap glyph mdi:apple-keyboard-option"/>
<rect rx="6.0" ry="6.0" x="200.0" y="2275.5434329005066" width="52.0" height="52.0" class="key"/>
<use href="#mdi:apple-keyboard-command" xlink:href="#mdi:apple-keyboard-command" x="219.0" y="2294.5434329005066" height="14" width="14.0" class="tap glyph mdi:apple-keyboard-command"/>
<rect rx="6.0" ry="6.0" x="256.0" y="2275.5434329005066" width="52.0" height="52.0" class="key"/>
<use href="#mdi:apple-keyboard-shift" xlink:href="#mdi:apple-keyboard-shift" x="275.0" y="2294.5434329005066" height="14" width="14.0" class="tap glyph mdi:apple-keyboard-shift"/>
<rect rx="6.0" ry="6.0" x="312.0" y="2275.5434329005066" width="52.0" height="52.0" class="key"/>
<rect rx="6.0" ry="6.0" x="704.0" y="2275.5434329005066" width="52.0" height="52.0" class="key"/>
<rect rx="6.0" ry="6.0" x="760.0" y="2275.5434329005066" width="52.0" height="52.0" class="key"/>
<use href="#mdi:arrow-left" xlink:href="#mdi:arrow-left" x="779.0" y="2294.5434329005066" height="14" width="14.0" class="tap glyph mdi:arrow-left"/>
<use href="#mdi:mouse" xlink:href="#mdi:mouse" x="780.0" y="2313.5434329005066" height="12" width="12.0" class="hold glyph mdi:mouse"/>
<rect rx="6.0" ry="6.0" x="816.0" y="2275.5434329005066" width="52.0" height="52.0" class="key"/>
<use href="#mdi:arrow-down" xlink:href="#mdi:arrow-down" x="835.0" y="2294.5434329005066" height="14" width="14.0" class="tap glyph mdi:arrow-down"/>
<use href="#mdi:mouse" xlink:href="#mdi:mouse" x="836.0" y="2313.5434329005066" height="12" width="12.0" class="hold glyph mdi:mouse"/>
<rect rx="6.0" ry="6.0" x="872.0" y="2275.5434329005066" width="52.0" height="52.0" class="key"/>
<use href="#mdi:arrow-right" xlink:href="#mdi:arrow-right" x="891.0" y="2294.5434329005066" height="14" width="14.0" class="tap glyph mdi:arrow-right"/>
<use href="#mdi:mouse" xlink:href="#mdi:mouse" x="892.0" y="2313.5434329005066" height="12" width="12.0" class="hold glyph mdi:mouse"/>
<rect rx="6.0" ry="6.0" x="928.0" y="2303.5434329005066" width="52.0" height="52.0" class="key"/>
<rect rx="6.0" ry="6.0" x="984.0" y="2303.5434329005066" width="52.0" height="52.0" class="key"/>
<rect rx="6.0" ry="6.0" x="32.0" y="2359.5434329005066" width="52.0" height="52.0" class="key"/>
<rect rx="6.0" ry="6.0" x="88.0" y="2359.5434329005066" width="52.0" height="52.0" class="key"/>
<rect rx="6.0" ry="6.0" x="144.0" y="2331.5434329005066" width="52.0" height="52.0" class="key"/>
<use href="#mdi:apple-keyboard-option" xlink:href="#mdi:apple-keyboard-option" x="163.0" y="2350.5434329005066" height="14" width="14.0" class="tap glyph mdi:apple-keyboard-option"/>
<rect rx="6.0" ry="6.0" x="200.0" y="2331.5434329005066" width="52.0" height="52.0" class="key"/>
<use href="#mdi:apple-keyboard-command" xlink:href="#mdi:apple-keyboard-command" x="219.0" y="2350.5434329005066" height="14" width="14.0" class="tap glyph mdi:apple-keyboard-command"/>
<rect rx="6.0" ry="6.0" x="256.0" y="2331.5434329005066" width="52.0" height="52.0" class="key"/>
<rect rx="6.0" ry="6.0" x="312.0" y="2331.5434329005066" width="52.0" height="52.0" class="key"/>
<g transform="rotate(20.0, 397.02951760251284, 2411.3988975586008)">
<rect rx="6.0" ry="6.0" x="371.02951760251284" y="2385.3988975586008" width="52.0" height="52.0" class="key"/>
</g>
<g transform="rotate(30.0, 448.5389172312929, 2434.9921442064706)">
<rect rx="6.0" ry="6.0" x="422.5389172312929" y="2408.9921442064706" width="52.0" height="52.0" class="key"/>
</g>
<g transform="rotate(45.0, 495.5476764533247, 2470.6890891002777)">
<rect rx="6.0" ry="6.0" x="469.5476764533247" y="2444.6890891002777" width="52.0" height="52.0" class="key"/>
</g>
<g transform="rotate(-45.0, 576.4121215213199, 2466.729291125633)">
<rect rx="6.0" ry="6.0" x="550.4121215213199" y="2440.729291125633" width="52.0" height="52.0" class="key"/>
</g>
<g transform="rotate(-30.0, 624.3108250299001, 2432.192144206471)">
<rect rx="6.0" ry="6.0" x="598.3108250299001" y="2406.192144206471" width="52.0" height="52.0" class="key"/>
</g>
<g transform="rotate(-20.0, 676.2327610738882, 2409.483584755977)">
<rect rx="6.0" ry="6.0" x="650.2327610738882" y="2383.483584755977" width="52.0" height="52.0" class="key"/>
</g>
<rect rx="6.0" ry="6.0" x="704.0" y="2331.5434329005066" width="52.0" height="52.0" class="key"/>
<rect rx="6.0" ry="6.0" x="760.0" y="2331.5434329005066" width="52.0" height="52.0" class="key"/>
<rect rx="6.0" ry="6.0" x="816.0" y="2331.5434329005066" width="52.0" height="52.0" class="key"/>
<rect rx="6.0" ry="6.0" x="872.0" y="2331.5434329005066" width="52.0" height="52.0" class="key"/>
<use href="#mdi:arrow-down" xlink:href="#mdi:arrow-down" x="891.0" y="2350.5434329005066" height="14" width="14.0" class="tap glyph mdi:arrow-down"/>
<use href="#mdi:tire" xlink:href="#mdi:tire" x="892.0" y="2369.5434329005066" height="12" width="12.0" class="hold glyph mdi:tire"/>
<rect rx="6.0" ry="6.0" x="928.0" y="2359.5434329005066" width="52.0" height="52.0" class="key"/>
<rect rx="6.0" ry="6.0" x="984.0" y="2359.5434329005066" width="52.0" height="52.0" class="key"/>
<rect rx="6.0" ry="6.0" x="32.0" y="2415.5434329005066" width="52.0" height="52.0" class="key"/>
<rect rx="6.0" ry="6.0" x="88.0" y="2415.5434329005066" width="52.0" height="52.0" class="key"/>
<rect rx="6.0" ry="6.0" x="144.0" y="2387.5434329005066" width="52.0" height="52.0" class="key"/>
<rect rx="6.0" ry="6.0" x="200.0" y="2387.5434329005066" width="52.0" height="52.0" class="key"/>
<rect rx="6.0" ry="6.0" x="256.0" y="2387.5434329005066" width="52.0" height="52.0" class="key"/>
<g transform="rotate(15.0, 344.1183900270675, 2461.0783157829346)">
<rect rx="6.0" ry="6.0" x="318.1183900270675" y="2435.0783157829346" width="52.0" height="52.0" class="key"/>
</g>
<g transform="rotate(25.0, 399.5017205008228, 2484.2865811757183)">
<rect rx="6.0" ry="6.0" x="373.5017205008228" y="2458.2865811757183" width="52.0" height="52.0" class="key"/>
</g>
<g transform="rotate(45.0, 451.9898987322333, 2522.3313113791864)">
<rect rx="6.0" ry="6.0" x="425.9898987322333" y="2496.3313113791864" width="52.0" height="52.0" class="key"/>
</g>
<g transform="rotate(-45.0, 616.0101012677667, 2522.3313113791864)">
<rect rx="6.0" ry="6.0" x="590.0101012677667" y="2496.3313113791864" width="52.0" height="52.0" class="key"/>
<text x="616.0101012677667" y="2522.3313113791864" class="tap">Base</text>
</g>
<g transform="rotate(-25.0, 668.4982794991772, 2484.2865811757183)">
<rect rx="6.0" ry="6.0" x="642.4982794991772" y="2458.2865811757183" width="52.0" height="52.0" class="key"/>
<use href="#mdi:numeric-2" xlink:href="#mdi:numeric-2" x="661.4982794991772" y="2477.2865811757183" height="14" width="14.0" class="tap glyph mdi:numeric-2"/>
<use href="#mdi:mouse" xlink:href="#mdi:mouse" x="662.4982794991772" y="2496.2865811757183" height="12" width="12.0" class="hold glyph mdi:mouse"/>
</g>
<g transform="rotate(-15.0, 723.8816099729324, 2461.0783157829346)">
<rect rx="6.0" ry="6.0" x="697.8816099729324" y="2435.0783157829346" width="52.0" height="52.0" class="key"/>
<use href="#mdi:numeric-1" xlink:href="#mdi:numeric-1" x="716.8816099729324" y="2454.0783157829346" height="14" width="14.0" class="tap glyph mdi:numeric-1"/>
<use href="#mdi:mouse" xlink:href="#mdi:mouse" x="717.8816099729324" y="2473.0783157829346" height="12" width="12.0" class="hold glyph mdi:mouse"/>
</g>
<rect rx="6.0" ry="6.0" x="760.0" y="2387.5434329005066" width="52.0" height="52.0" class="key"/>
<rect rx="6.0" ry="6.0" x="816.0" y="2387.5434329005066" width="52.0" height="52.0" class="key"/>
<rect rx="6.0" ry="6.0" x="872.0" y="2387.5434329005066" width="52.0" height="52.0" class="key"/>
<rect rx="6.0" ry="6.0" x="928.0" y="2415.5434329005066" width="52.0" height="52.0" class="key"/>
<rect rx="6.0" ry="6.0" x="984.0" y="2415.5434329005066" width="52.0" height="52.0" class="key"/>
</g>
</svg>
